<svg xmlns="http://www.w3.org/2000/svg" version="1.2" viewBox="271.3218231201172 337.9825134277344 130.1875 130.1875" width="500" height="500">
	<title>1258310_151809-OUGLRD-171</title>
	<defs>
		<clipPath clipPathUnits="userSpaceOnUse" id="cp1">
			<path d="m157.31 138.6c0 33.91-27.41 61.31-61.31 61.31-33.91 0-61.31-27.4-61.31-61.31 0-33.9 27.4-61.31 61.31-61.31 33.9 0 61.31 27.41 61.31 61.31z"/>
		</clipPath>
		<clipPath clipPathUnits="userSpaceOnUse" id="cp2">
			<path d="m139.35 181.95c-23.97 23.98-62.73 23.98-86.71 0-23.97-23.97-23.97-62.73 0-86.7 23.98-23.98 62.74-23.98 86.71 0 23.98 23.97 23.98 62.73 0 86.7z"/>
		</clipPath>
		<clipPath clipPathUnits="userSpaceOnUse" id="cp3">
			<path d="m271.79 80.59c32.1 10.94 49.19 45.72 38.26 77.81-10.94 32.09-45.72 49.19-77.81 38.25-32.09-10.94-49.19-45.72-38.25-77.81 10.93-32.09 45.71-49.19 77.8-38.25z"/>
		</clipPath>
		<clipPath clipPathUnits="userSpaceOnUse" id="cp4">
			<path d="m312.49 148.64c-5.55 33.45-37.07 56-70.51 50.46-33.45-5.54-56.01-37.06-50.46-70.51 5.54-33.45 37.06-56 70.51-50.46 33.44 5.54 56 37.06 50.46 70.51z"/>
		</clipPath>
		<clipPath clipPathUnits="userSpaceOnUse" id="cp5">
			<path d="m253.21 148.26c-2.22 0.84-4.69 0.77-6.82-0.28q-0.05-0.03-0.1-0.05c-3.35-1.69-6.52 3.26-2.36 6.22 4.18 2.97 10.54 2.59 13.38-0.65 2.49-2.84 0.22-6.87-4.1-5.24z"/>
		</clipPath>
		<clipPath clipPathUnits="userSpaceOnUse" id="cp6">
			<path d="m253.13 148.17c-2.22 0.84-4.69 0.78-6.81-0.28q-0.05-0.02-0.1-0.05c-3.36-1.69-6.53 3.26-2.36 6.22 4.17 2.97 10.54 2.59 13.38-0.65 2.49-2.84 0.22-6.87-4.11-5.24z"/>
		</clipPath>
		<clipPath clipPathUnits="userSpaceOnUse" id="cp7">
			<path d="m469.05 138.61c0 33.9-27.4 61.31-61.31 61.31-33.9 0-61.31-27.41-61.31-61.31 0-33.91 27.41-61.32 61.31-61.32 33.91 0 61.31 27.41 61.31 61.32z"/>
		</clipPath>
		<clipPath clipPathUnits="userSpaceOnUse" id="cp8">
			<path d="m451.1 181.96c-23.98 23.97-62.74 23.97-86.71 0-23.98-23.98-23.98-62.74 0-86.71 23.97-23.98 62.73-23.98 86.71 0 23.97 23.97 23.97 62.73 0 86.71z"/>
		</clipPath>
		<clipPath clipPathUnits="userSpaceOnUse" id="cp9">
			<path d="m157.31 276.69c0 33.91-27.41 61.31-61.31 61.31-33.91 0-61.32-27.4-61.32-61.31 0-33.9 27.41-61.31 61.32-61.31 33.9 0 61.31 27.41 61.31 61.31z"/>
		</clipPath>
		<clipPath clipPathUnits="userSpaceOnUse" id="cp10">
			<path d="m139.35 320.05c-23.97 23.97-62.73 23.97-86.71 0-23.97-23.98-23.97-62.74 0-86.71 23.98-23.98 62.74-23.98 86.71 0 23.98 23.97 23.98 62.73 0 86.71z"/>
		</clipPath>
		<clipPath clipPathUnits="userSpaceOnUse" id="cp11">
			<path d="m313.31 276.7c0 33.9-27.41 61.31-61.32 61.31-33.9 0-61.31-27.41-61.31-61.31 0-33.91 27.41-61.32 61.31-61.32 33.91 0 61.32 27.41 61.32 61.32z"/>
		</clipPath>
		<clipPath clipPathUnits="userSpaceOnUse" id="cp12">
			<path d="m295.35 320.05c-23.97 23.97-62.73 23.97-86.71 0-23.97-23.98-23.97-62.74 0-86.71 23.98-23.98 62.74-23.98 86.71 0 23.98 23.97 23.98 62.73 0 86.71z"/>
		</clipPath>
		<clipPath clipPathUnits="userSpaceOnUse" id="cp13">
			<path d="m469.05 276.7c0 33.9-27.4 61.31-61.31 61.31-33.91 0-61.31-27.41-61.31-61.31 0-33.91 27.4-61.31 61.31-61.31 33.91 0 61.31 27.4 61.31 61.31z"/>
		</clipPath>
		<clipPath clipPathUnits="userSpaceOnUse" id="cp14">
			<path d="m451.1 320.05c-23.98 23.97-62.74 23.97-86.71 0-23.98-23.98-23.98-62.74 0-86.71 23.97-23.98 62.73-23.98 86.71 0 23.97 23.97 23.97 62.73 0 86.71z"/>
		</clipPath>
		<clipPath clipPathUnits="userSpaceOnUse" id="cp15">
			<path d="m414.09 298.36c-6.21 2.85-13.34 3.2-19.68 0.67q-0.15-0.06-0.3-0.12c-10.04-4.05-18.08 10.62-5.42 18.1 12.65 7.49 30.89 5.06 38.37-4.73 6.54-8.57-0.88-19.46-12.97-13.92z"/>
		</clipPath>
		<clipPath clipPathUnits="userSpaceOnUse" id="cp16">
			<path d="m413.89 298.04c-6.21 2.85-13.33 3.2-19.68 0.67q-0.15-0.06-0.3-0.12c-10.03-4.05-18.08 10.61-5.42 18.1 12.65 7.49 30.89 5.06 38.37-4.73 6.54-8.57-0.88-19.46-12.97-13.92z"/>
		</clipPath>
		<clipPath clipPathUnits="userSpaceOnUse" id="cp17">
			<path d="m236.8 399.32c0 33.9-27.41 61.31-61.31 61.31-33.91 0-61.32-27.41-61.32-61.31 0-33.91 27.41-61.31 61.32-61.31 33.9 0 61.31 27.4 61.31 61.31z"/>
		</clipPath>
		<clipPath clipPathUnits="userSpaceOnUse" id="cp18">
			<path d="m218.84 442.67c-23.97 23.98-62.73 23.98-86.71 0-23.97-23.97-23.97-62.73 0-86.71 23.98-23.97 62.74-23.97 86.71 0 23.98 23.98 23.98 62.74 0 86.71z"/>
		</clipPath>
		<clipPath clipPathUnits="userSpaceOnUse" id="cp19">
			<path d="m165.86 431.16c0 9.76 4.52 17.67 10.1 17.67 5.57 0 10.09-7.91 10.09-17.67 0-9.76-4.52-17.67-10.09-17.67-5.58 0-10.1 7.91-10.1 17.67z"/>
		</clipPath>
		<clipPath clipPathUnits="userSpaceOnUse" id="cp20">
			<path d="m397.72 399.32c0 33.91-27.4 61.31-61.31 61.31-33.91 0-61.31-27.4-61.31-61.31 0-33.9 27.4-61.31 61.31-61.31 33.91 0 61.31 27.41 61.31 61.31z"/>
		</clipPath>
		<clipPath clipPathUnits="userSpaceOnUse" id="cp21">
			<path d="m379.77 442.67c-23.98 23.98-62.73 23.98-86.71 0-23.97-23.97-23.97-62.73 0-86.71 23.98-23.97 62.73-23.97 86.71 0 23.97 23.98 23.97 62.74 0 86.71z"/>
		</clipPath>
		<clipPath clipPathUnits="userSpaceOnUse" id="cp22">
			<path d="m343.41 445.64h-13.53c-2.82 0-4.99-2.51-4.58-5.31l4.95-33.77c0.33-2.27 2.28-3.96 4.58-3.96h3.63c2.3 0 4.25 1.69 4.58 3.96l4.95 33.77c0.41 2.8-1.75 5.31-4.58 5.31z"/>
		</clipPath>
		<clipPath clipPathUnits="userSpaceOnUse" id="cp23">
			<path d="m343.41 445.64h-13.53c-2.82 0-4.99-2.51-4.58-5.31l4.95-33.77c0.33-2.27 2.28-3.96 4.58-3.96h3.63c2.3 0 4.25 1.69 4.58 3.96l4.95 33.77c0.41 2.8-1.75 5.31-4.58 5.31z"/>
		</clipPath>
		<clipPath clipPathUnits="userSpaceOnUse" id="cp24">
			<path d="m343.41 445.64h-13.53c-2.82 0-4.99-2.51-4.58-5.31l4.95-33.77c0.33-2.27 2.28-3.96 4.58-3.96h3.63c2.3 0 4.25 1.69 4.58 3.96l4.95 33.77c0.41 2.8-1.75 5.31-4.58 5.31z"/>
		</clipPath>
		<clipPath clipPathUnits="userSpaceOnUse" id="cp25">
			<path d="m343.41 445.64h-13.53c-2.82 0-4.99-2.51-4.58-5.31l4.95-33.77c0.33-2.27 2.28-3.96 4.58-3.96h3.63c2.3 0 4.25 1.69 4.58 3.96l4.95 33.77c0.41 2.8-1.75 5.31-4.58 5.31z"/>
		</clipPath>
		<clipPath clipPathUnits="userSpaceOnUse" id="cp26">
			<path d="m343.41 445.64h-13.53c-2.82 0-4.99-2.51-4.58-5.31l4.95-33.77c0.33-2.27 2.28-3.96 4.58-3.96h3.63c2.3 0 4.25 1.69 4.58 3.96l4.95 33.77c0.41 2.8-1.75 5.31-4.58 5.31z"/>
		</clipPath>
		<clipPath clipPathUnits="userSpaceOnUse" id="cp27">
			<path d="m343.41 445.64h-13.53c-2.82 0-4.99-2.51-4.58-5.31l4.95-33.77c0.33-2.27 2.28-3.96 4.58-3.96h3.63c2.3 0 4.25 1.69 4.58 3.96l4.95 33.77c0.41 2.8-1.75 5.31-4.58 5.31z"/>
		</clipPath>
		<clipPath clipPathUnits="userSpaceOnUse" id="cp28">
			<path d="m343.41 445.64h-13.53c-2.82 0-4.99-2.51-4.58-5.31l4.95-33.77c0.33-2.27 2.28-3.96 4.58-3.96h3.63c2.3 0 4.25 1.69 4.58 3.96l4.95 33.77c0.41 2.8-1.75 5.31-4.58 5.31z"/>
		</clipPath>
	</defs>
	<style>
		.s0 { fill: #18384d } 
		.s1 { fill: #95be5f } 
		.s2 { opacity: .65;fill: #afdb63 } 
		.s3 { fill: none;stroke: #6f8e3f;stroke-miterlimit:10;stroke-width: 2.1 } 
		.s4 { fill: #afdb63 } 
		.s5 { fill: #6f8e3f } 
		.s6 { fill: #ffffff } 
		.s7 { fill: #231f20 } 
		.s8 { fill: #bc4b3f } 
		.s9 { fill: #fba026 } 
		.s10 { fill: #96352d } 
		.s11 { fill: #ce5249 } 
		.s12 { fill: none;stroke: #96352d;stroke-miterlimit:10;stroke-width: 2.1 } 
		.s13 { fill: #d04642 } 
		.s14 { fill: #553982 } 
		.s15 { fill: #dea09f } 
		.s16 { fill: #f2bdbd } 
		.s17 { fill: #c16c6c } 
		.s18 { fill: none;stroke: #c16c6c;stroke-miterlimit:10;stroke-width: 2 } 
		.s19 { fill: #dea09f;stroke: #c16c6c;stroke-miterlimit:10;stroke-width: 2 } 
		.s20 { fill: #f7da64 } 
		.s21 { fill: #ede0a9;stroke: #295d6b;stroke-miterlimit:10;stroke-width: 1.8 } 
		.s22 { fill: #2173a5 } 
		.s23 { fill: #2581a5 } 
		.s24 { fill: #3ca6bf } 
		.s25 { fill: none;stroke: #295d6b;stroke-miterlimit:10;stroke-width: 1.8 } 
		.s26 { fill: #295d6b } 
		.s27 { fill: #3a94c1 } 
		.s28 { fill: #9365b8 } 
		.s29 { fill: #c6dd51 } 
		.s30 { fill: #d8e547 } 
		.s31 { fill: none;stroke: #a3b232;stroke-miterlimit:10;stroke-width: 1.8 } 
		.s32 { fill: #a3b232 } 
		.s33 { fill: none;stroke: #af3333;stroke-miterlimit:10;stroke-width: .7 } 
		.s34 { fill: #d13c5a } 
		.s35 { fill: #e0486c } 
		.s36 { fill: none;stroke: #ad2747;stroke-miterlimit:10;stroke-width: 1.9 } 
		.s37 { fill: #ad2747 } 
		.s38 { fill: #f2f2f2 } 
		.s39 { fill: #ede0a9;stroke: #295d6b;stroke-miterlimit:10;stroke-width: 2.1 } 
		.s40 { fill: none;stroke: #482c8e;stroke-miterlimit:10;stroke-width: 2.1 } 
		.s41 { opacity: .32;fill: none;stroke: #d3bd5f;stroke-miterlimit:10;stroke-width: 2.1 } 
		.s42 { fill: #655fbe } 
		.s43 { fill: #8479db } 
		.s44 { fill: #482c8e } 
		.s45 { fill: #eb6b56 } 
		.s46 { fill: #a05218 } 
		.s47 { fill: #d7731d } 
		.s48 { opacity: .35;fill: #f49758 } 
		.s49 { fill: none;stroke: #a05218;stroke-miterlimit:10;stroke-width: 2.2 } 
		.s50 { fill: #ad581f } 
		.s51 { fill: #dd8143 } 
	</style>
	<g id="OBJECTS">
		<g style="display: none">
			<g id="Clip-Path" clip-path="url(#cp1)">
				<path fill-rule="evenodd" class="s0" d="m139.35 181.95c-23.97 23.98-62.73 23.98-86.71 0-23.97-23.97-23.97-62.73 0-86.7 23.98-23.98 62.74-23.98 86.71 0 23.98 23.97 23.98 62.73 0 86.7z"/>
			</g>
			<g id="Clip-Path" clip-path="url(#cp2)">
				<g>
					<g>
						<path class="s1" d="m62.84 110.48v92.98h-16.32v-92.98c0-1.8 1.48-3.27 3.28-3.27h1.01c1.78 0 3.26 1.47 3.26 3.27v16.07h1.23v-16.07c0-1.8 1.46-3.27 3.26-3.27h1.01c1.8 0 3.27 1.47 3.27 3.27z"/>
						<path class="s2" d="m53.07 119.22v-6.74c0-1.8-1.47-3.27-3.26-3.27h-1.01c-1.8 0-3.28 1.47-3.28 3.27v3.68c2.14 1.64 5.05 2.69 7.55 3.06z"/>
						<path class="s2" d="m61.84 115.03v-2.55c0-1.8-1.47-3.27-3.27-3.27h-1.01c-1.8 0-3.26 1.47-3.26 3.27v6.86c3.87 0.23 5.74-1.68 7.54-4.31z"/>
						<path class="s3" d="m61.84 112.48v92.98h-16.32v-92.98c0-1.8 1.48-3.27 3.28-3.27h1.01c1.78 0 3.26 1.47 3.26 3.27v16.07h1.23v-16.07c0-1.8 1.46-3.27 3.26-3.27h1.01c1.8 0 3.27 1.47 3.27 3.27z"/>
						<path class="s4" d="m49.3 167.63c0 1.38 1.12 2.5 2.5 2.5 1.38 0 2.5-1.12 2.5-2.5 0-1.38-1.12-2.5-2.5-2.5-1.38 0-2.5 1.12-2.5 2.5z"/>
						<path fill-rule="evenodd" class="s4" d="m54.21 141.01c-1.33 0-2.41-1.08-2.41-2.41 0-1.34 1.08-2.42 2.41-2.42 1.33 0 2.41 1.08 2.41 2.42 0 1.33-1.08 2.41-2.41 2.41z"/>
					</g>
					<g>
						<path class="s1" d="m146.48 112.48v92.98h-16.32v-92.98c0-1.8 1.48-3.27 3.28-3.27h1.01c1.78 0 3.26 1.47 3.26 3.27v16.07h1.23v-16.07c0-1.8 1.46-3.27 3.26-3.27h1.01c1.8 0 3.27 1.47 3.27 3.27z"/>
						<path class="s2" d="m146.48 122.25v-9.77c0-1.8-1.46-3.27-3.26-3.27h-1.01c-1.8 0-3.27 1.47-3.27 3.27v11.27c2.38-0.02 5.08-0.5 7.54-1.5z"/>
						<path class="s2" d="m129.71 123.69v-11.21c0-1.8-1.47-3.27-3.26-3.27h-1.01c-1.8 0-3.28 1.47-3.28 3.27v7.74c2.07 1.89 4.55 3.21 7.55 3.47z"/>
						<path class="s3" d="m146.48 112.48v92.98h-16.32v-92.98c0-1.8 1.48-3.27 3.28-3.27h1.01c1.78 0 3.26 1.47 3.26 3.27v16.07h1.23v-16.07c0-1.8 1.46-3.27 3.26-3.27h1.01c1.8 0 3.27 1.47 3.27 3.27z"/>
						<path class="s4" d="m133.94 133.78c0 0.58 0.47 1.05 1.05 1.05 0.58 0 1.05-0.47 1.05-1.05 0-0.59-0.47-1.06-1.05-1.06-0.58 0-1.05 0.47-1.05 1.06z"/>
						<path fill-rule="evenodd" class="s4" d="m141.13 151.61c-1.56 0-2.81-1.25-2.81-2.8 0-1.55 1.25-2.81 2.81-2.81 1.55 0 2.8 1.26 2.8 2.81 0 1.55-1.25 2.8-2.8 2.8z"/>
						<path fill-rule="evenodd" class="s4" d="m140.51 172.94c-1.21 0-2.19-0.98-2.19-2.2 0-1.21 0.98-2.19 2.19-2.19 1.22 0 2.2 0.98 2.2 2.19 0 1.22-0.98 2.2-2.2 2.2z"/>
						<path class="s4" d="m136.63 184.44c0 0.64 0.52 1.15 1.16 1.15 0.63 0 1.15-0.51 1.15-1.15 0-0.64-0.52-1.16-1.15-1.16-0.64 0.01-1.16 0.52-1.16 1.16z"/>
					</g>
					<g>
						<path class="s1" d="m136.57 205.47v-60.15c0-22-18-40-40-40-22 0-40 18-40 40v60.15z"/>
						<g>
							<path fill-rule="evenodd" class="s5" d="m77.36 161.98c-6.62 0-11.97-5.35-11.97-11.97 0-6.62 5.35-11.97 11.97-11.97 6.62 0 11.97 5.35 11.97 11.97 0 6.62-5.35 11.97-11.97 11.97z"/>
							<path fill-rule="evenodd" class="s5" d="m83.48 150.46c-0.97 4.11-5.08 6.65-9.19 5.68-4.11-0.97-6.64-5.08-5.67-9.19 0.97-4.11 5.07-6.64 9.18-5.67 4.11 0.97 6.65 5.07 5.68 9.18z"/>
						</g>
						<g>
							<path fill-rule="evenodd" class="s6" d="m77.36 159.29c-6.62 0-11.97-5.36-11.97-11.98 0-6.62 5.35-11.97 11.97-11.97 6.62 0 11.97 5.35 11.97 11.97 0 6.62-5.35 11.98-11.97 11.98z"/>
							<path fill-rule="evenodd" class="s7" d="m79.05 147.64c-4.22 0-7.63-3.41-7.63-7.64 0-4.22 3.41-7.63 7.63-7.63 4.23 0 7.64 3.41 7.64 7.63 0 4.23-3.41 7.64-7.64 7.64z"/>
						</g>
						<g>
							<path fill-rule="evenodd" class="s5" d="m114.86 161.98c-6.62 0-11.97-5.35-11.97-11.97 0-6.62 5.35-11.97 11.97-11.97 6.62 0 11.97 5.35 11.97 11.97 0 6.62-5.35 11.97-11.97 11.97z"/>
							<path fill-rule="evenodd" class="s5" d="m124.11 149.93c-0.69 4.17-4.61 6.98-8.78 6.29-4.16-0.68-6.98-4.61-6.29-8.77 0.69-4.17 4.61-6.98 8.78-6.3 4.17 0.69 6.98 4.61 6.29 8.78z"/>
						</g>
						<g>
							<path fill-rule="evenodd" class="s6" d="m114.86 159.29c-6.62 0-11.97-5.36-11.97-11.98 0-6.62 5.35-11.97 11.97-11.97 6.62 0 11.97 5.35 11.97 11.97 0 6.62-5.35 11.98-11.97 11.98z"/>
							<path fill-rule="evenodd" class="s7" d="m114.58 148.64c-4.23 0-7.64-3.41-7.64-7.64 0-4.22 3.41-7.63 7.64-7.63 4.22 0 7.63 3.41 7.63 7.63 0 4.23-3.41 7.64-7.63 7.64z"/>
						</g>
						<path class="s5" d="m74.64 128.24c0 0 15.54-5.07 16.09 2.93 0.55 8-16.09-2.93-16.09-2.93z"/>
						<path class="s5" d="m113.99 128.24c0 0-15.54-5.07-16.09 2.93-0.55 8 16.09-2.93 16.09-2.93z"/>
						<path class="s7" d="m101.09 178.13v-8.99c0-3.17-2.59-5.77-5.77-5.77-3.17 0-5.77 2.6-5.77 5.77v8.99z"/>
						<path class="s2" d="m81.72 129.7c6.38 3.86 14.13 5.39 21.52 4.95 8.59-0.5 19.48-3.24 22.89-12.21q0.26-0.71 0.47-1.45c-7.34-8.36-18.09-13.67-30.03-13.67-9.53 0-18.3 3.38-25.19 9 1.61 5.4 4.74 9.99 10.34 13.38z"/>
						<path class="s3" d="m136.57 205.47v-60.15c0-22-18-40-40-40-22 0-40 18-40 40v60.15z"/>
						<path fill-rule="evenodd" class="s4" d="m86.51 123.55c-2.59 0-4.67-2.08-4.67-4.67 0-2.58 2.08-4.67 4.67-4.67 2.58 0 4.67 2.09 4.67 4.67 0 2.59-2.09 4.67-4.67 4.67z"/>
						<path class="s4" d="m103.7 118.3c0 1.01 0.82 1.83 1.83 1.83 1.01 0 1.83-0.82 1.83-1.83 0-1.01-0.82-1.83-1.83-1.83-1.01 0-1.83 0.82-1.83 1.83z"/>
						<path class="s4" d="m112.1 126.12c0 2.14 1.73 3.88 3.88 3.88 2.14 0 3.88-1.74 3.88-3.88 0-2.15-1.74-3.88-3.88-3.88-2.15 0-3.88 1.73-3.88 3.88z"/>
						<path class="s4" d="m119.86 162.66c0 1.86 1.51 3.37 3.37 3.37 1.87 0 3.38-1.51 3.38-3.37 0-1.87-1.51-3.38-3.38-3.38-1.86 0-3.37 1.51-3.37 3.38z"/>
						<path fill-rule="evenodd" class="s4" d="m95.32 199.07c-4.18 0-7.56-3.38-7.56-7.56 0-4.18 3.38-7.57 7.56-7.57 4.19 0 7.57 3.39 7.57 7.57 0 4.18-3.38 7.56-7.57 7.56z"/>
						<path class="s4" d="m69.6 174.8c0 1.78 1.45 3.23 3.23 3.23 1.78 0 3.22-1.45 3.22-3.23 0-1.78-1.44-3.22-3.22-3.22-1.78 0-3.23 1.44-3.23 3.22z"/>
						<path class="s4" d="m64.2 194.8c0 2.14 1.74 3.88 3.89 3.88 2.14 0 3.88-1.74 3.88-3.88 0-2.15-1.74-3.88-3.88-3.88-2.15 0-3.89 1.73-3.89 3.88z"/>
						<path class="s8" d="m89.55 173.13h11.54c0 0-0.39-5.28-5.77-4.93-5.37 0.35-5.77 4.93-5.77 4.93z"/>
					</g>
				</g>
			</g>
		</g>
		<g style="display: none">
			<g id="Clip-Path" clip-path="url(#cp3)">
				<path fill-rule="evenodd" class="s9" d="m312.49 148.64c-5.55 33.45-37.07 56-70.51 50.46-33.45-5.54-56.01-37.06-50.46-70.51 5.54-33.45 37.06-56 70.51-50.46 33.44 5.54 56 37.06 50.46 70.51z"/>
			</g>
			<g id="Clip-Path" clip-path="url(#cp4)">
				<g>
					<g>
						<path class="s10" d="m237.34 156.09c-0.02 0.27-0.08 0.55-0.09 0.82 0.07-2.33 0.03-0.11-0.11 0.52-0.5 2.4-1.03 4.77-1.85 7.1-1.53 4.34-4.53 9.52-9.44 11.43-5.84 2.27-13.96-0.66-17.52-3.25-0.49-0.36-0.59-1.58 0.25-3.65 1-2.48 2.88-5.49 4.59-8.01 7.56-11.2 20.28-24.32 16.92-39.11-4.27-18.74-27.09-27.28-41.75-14.6-6.62 5.74-10.93 16.52-5.52 24.42 3.67 5.36 11.15 7.2 17.33 6.7 8.05-0.64 8.12-13.28 0-12.63-2.71 0.22-6.76 0.2-7.15-2.02-1-5.63 7.07-10.01 11.56-10.16 6.6-0.21 13.18 6.65 13.42 12.72 0.22 5.67-4.02 11.58-7.15 16.19-6.22 9.17-18.94 21.68-14.62 33.94 2.49 7.05 10.26 10.44 17.04 11.94 7.65 1.7 15.79 1.09 22.34-3.52 9.08-6.4 13.48-18.07 14.38-28.83 0.68-8.1-11.95-8.05-12.63 0z"/>
					</g>
					<g>
						<path class="s10" d="m254.44 156.09c0.76 9.08 4.01 18.66 10.33 25.37 10.02 10.66 31.11 10.79 40.86-0.57 9.45-11.01-2.73-25.21-9.16-34.21-3.64-5.1-7.92-10.58-9.54-16.74-1.56-5.9 2.22-12.89 8.32-15.45 5.9-2.47 13.83 0.88 15.77 7.1 1.45 4.69-2.95 4.55-6.76 4.24-8.1-0.64-8.06 11.99 0 12.63 5.2 0.42 11.3-0.81 15.26-4.36 6.53-5.86 5.15-15.78 0.5-22.36-4.78-6.76-12.87-10.91-21.17-10.71-10.21 0.25-18.61 7.4-22.85 16.34-6.87 14.47 4.44 28.5 12.48 39.74 1.97 2.76 3.96 5.53 5.64 8.48 1.14 2.01 2.23 4.51 2.29 5.7 0.08 1.34 0.21 1.03-0.33 1.42 0.48-0.35-1.19 0.95-1.44 1.11-3.3 2.11-8.13 3.13-12.01 2.92-6.55-0.35-10.69-5.24-13.06-10.95-0.79-1.91-1.63-4.96-2.12-7.39q-0.25-1.28-0.44-2.57c0.35 2.16 0.1 0.8 0.06 0.26-0.68-8.04-13.31-8.11-12.63 0z"/>
					</g>
					<path class="s8" d="m267 179.94h-34.12c-14.21 0-25.83-11.62-25.83-25.83v-20.44c0-14.21 11.62-25.83 25.83-25.83h34.12c14.21 0 25.83 11.62 25.83 25.83v20.44c0 14.21-11.62 25.83-25.83 25.83z"/>
					<path class="s11" d="m258.49 128.96c8.01 0.27 16.58-0.21 24.01-3.49 3.51-1.54 5.98-3.6 7.65-6.02-4.99-6.44-12.78-10.61-21.51-10.61h-31.4c-5.8 0-11.19 1.84-15.62 4.97 5.51 12.31 24.93 14.74 36.87 15.15z"/>
					<path class="s12" d="m270 180.94h-34.12c-14.21 0-25.83-11.62-25.83-25.83v-20.44c0-14.21 11.62-25.83 25.83-25.83h34.12c14.21 0 25.83 11.62 25.83 25.83v20.44c0 14.21-11.62 25.83-25.83 25.83z"/>
					<g>
						<path fill-rule="evenodd" class="s10" d="m225.07 153.39c-6.62 0-11.98-5.36-11.98-11.98 0-6.62 5.36-11.97 11.98-11.97 6.62 0 11.97 5.35 11.97 11.97 0 6.62-5.35 11.98-11.97 11.98z"/>
					</g>
					<g>
						<path fill-rule="evenodd" class="s6" d="m225.07 150.69c-6.62 0-11.98-5.35-11.98-11.97 0-6.63 5.36-11.98 11.98-11.98 6.62 0 11.97 5.35 11.97 11.98 0 6.62-5.35 11.97-11.97 11.97z"/>
						<path fill-rule="evenodd" class="s7" d="m223.76 145.04c-4.23 0-7.64-3.41-7.64-7.63 0-4.23 3.41-7.64 7.64-7.64 4.22 0 7.63 3.41 7.63 7.64 0 4.22-3.41 7.63-7.63 7.63z"/>
					</g>
					<g>
						<path fill-rule="evenodd" class="s10" d="m281.38 153.39c-6.62 0-11.97-5.36-11.97-11.98 0-6.62 5.35-11.97 11.97-11.97 6.62 0 11.97 5.35 11.97 11.97 0 6.62-5.35 11.98-11.97 11.98z"/>
					</g>
					<g>
						<path fill-rule="evenodd" class="s6" d="m281.38 150.69c-6.62 0-11.97-5.35-11.97-11.97 0-6.63 5.35-11.98 11.97-11.98 6.62 0 11.97 5.35 11.97 11.98 0 6.62-5.35 11.97-11.97 11.97z"/>
						<path fill-rule="evenodd" class="s7" d="m280.1 145.04c-4.23 0-7.64-3.41-7.64-7.63 0-4.23 3.41-7.64 7.64-7.64 4.22 0 7.63 3.41 7.63 7.64 0 4.22-3.41 7.63-7.63 7.63z"/>
					</g>
					<path class="s10" d="m218.13 123.16c0 0 6-15.21 12.51-10.53 6.52 4.67-12.51 10.53-12.51 10.53z"/>
					<path class="s10" d="m284.78 121.01c0 0-7.8-14.37-13.7-8.93-5.9 5.43 13.7 8.93 13.7 8.93z"/>
					<g>
						<g>
							<path class="s7" d="m253.21 148.26c-2.22 0.84-4.69 0.77-6.82-0.28q-0.05-0.03-0.1-0.05c-3.35-1.69-6.53 3.26-2.36 6.22 4.18 2.97 10.54 2.59 13.38-0.65 2.49-2.84 0.22-6.87-4.1-5.24z"/>
							<g>
								<g id="Clip-Path" clip-path="url(#cp5)">
									<path class="s13" d="m243.93 154.29c0 0-0.38-3.68 5.88-0.75 0 0 5.23-2.87 6.69 0.83 0 0-5.1 4.64-12.57-0.08z"/>
								</g>
							</g>
						</g>
						<g>
							<g id="Clip-Path" clip-path="url(#cp6)">
								<path class="s6" d="m245.22 147.56c0 0-1.23 2.46 1.52 3.15 2.75 0.68 3.26-1.94 3.26-1.94 0 0 0.65 2.88 3.35 2.13 2.69-0.75 1.89-3.22 1.89-3.22 0 0-8.98-1.91-10.02-0.12z"/>
							</g>
						</g>
					</g>
					<path fill-rule="evenodd" class="s11" d="m220.47 166.49c-1.82 0-3.28-1.47-3.28-3.29 0-1.82 1.46-3.29 3.28-3.29 1.82 0 3.29 1.47 3.29 3.29 0 1.82-1.47 3.29-3.29 3.29z"/>
					<path class="s11" d="m244.78 168.66c0 1.99 1.62 3.61 3.61 3.61 2 0 3.61-1.62 3.61-3.61 0-2-1.61-3.62-3.61-3.62-1.99 0-3.61 1.62-3.61 3.62z"/>
					<path fill-rule="evenodd" class="s11" d="m252 139.35c-1.34 0-2.41-1.08-2.41-2.42 0-1.33 1.07-2.41 2.41-2.41 1.33 0 2.41 1.08 2.41 2.41 0 1.34-1.08 2.42-2.41 2.42z"/>
					<path fill-rule="evenodd" class="s11" d="m267.78 168.65c-2.42 0-4.37-1.95-4.37-4.37 0-2.41 1.95-4.37 4.37-4.37 2.41 0 4.37 1.96 4.37 4.37 0 2.42-1.96 4.37-4.37 4.37z"/>
					<path class="s11" d="m284.49 160.78c0 1.94 1.56 3.5 3.5 3.5 1.93 0 3.5-1.56 3.5-3.5 0-1.93-1.57-3.5-3.5-3.5-1.94 0-3.5 1.57-3.5 3.5z"/>
					<path class="s11" d="m257.76 134.68c0 2.23 1.8 4.03 4.03 4.03 2.23 0 4.04-1.8 4.04-4.03 0-2.23-1.81-4.04-4.04-4.04-2.23 0-4.03 1.81-4.03 4.04z"/>
					<path class="s11" d="m234.3 153.16c0 0.76 0.61 1.37 1.37 1.37 0.75 0 1.37-0.61 1.37-1.37 0-0.76-0.62-1.37-1.37-1.37-0.76 0-1.37 0.61-1.37 1.37z"/>
					<path fill-rule="evenodd" class="s11" d="m229.27 177.32c-1.17 0-2.12-0.95-2.12-2.13 0-1.17 0.95-2.12 2.12-2.12 1.18 0 2.12 0.95 2.12 2.12 0 1.18-0.94 2.13-2.12 2.13z"/>
					<path fill-rule="evenodd" class="s11" d="m276.42 174.18c-0.53 0-0.96-0.43-0.96-0.96 0-0.53 0.43-0.96 0.96-0.96 0.53 0 0.96 0.43 0.96 0.96 0 0.53-0.43 0.96-0.96 0.96z"/>
				</g>
			</g>
		</g>
		<g style="display: none">
			<g id="Clip-Path" clip-path="url(#cp7)">
				<path fill-rule="evenodd" class="s14" d="m451.1 181.96c-23.98 23.97-62.74 23.97-86.71 0-23.98-23.98-23.98-62.74 0-86.71 23.97-23.98 62.73-23.98 86.71 0 23.97 23.97 23.97 62.73 0 86.71z"/>
			</g>
			<g id="Clip-Path" clip-path="url(#cp8)">
				<g>
					<path class="s15" d="m457.87 133.07c0.83-2.06 1.3-4.31 1.3-6.67 0-9.86-8-17.85-17.86-17.85q-1.49 0.01-2.91 0.26c-2.65-14.11-15.02-24.79-29.9-24.79-15.19 0-27.78 11.14-30.05 25.69q-1.39-0.17-2.83-0.17c-13.01 0-23.57 10.55-23.57 23.56 0 9.8 5.98 18.2 14.48 21.75-3.22 3.54-5.21 8.23-5.21 13.39 0 10.99 8.91 19.89 19.9 19.89 5.22 0 9.97-2.03 13.52-5.33 1.23 8.3 8.36 14.68 17 14.68 8.54 0 15.61-6.23 16.96-14.39 7.36-0.91 13.42-5.99 15.74-12.8q2.16 0.5 4.46 0.52c11.01 0 19.94-8.93 19.94-19.95 0-7.78-4.47-14.51-10.97-17.79z"/>
					<path class="s16" d="m353.51 126.94c2.77-0.03 5.8-0.84 7.65-1.4 5.24-1.58 14.3-5.16 11.79-12.23q-0.32-0.87-0.88-1.51c-8.57 1.3-15.64 7.22-18.56 15.14z"/>
					<path class="s16" d="m448.29 120.83c2.87 0.15 5.76-0.34 8.4-1.47-3.05-5.17-8.6-8.66-15-8.79q-0.06 0.11-0.15 0.21c-5.4 6.03 1.59 9.79 6.75 10.05z"/>
					<path class="s16" d="m459.85 151.44c2.31 2.45 5.94 3.51 8.95 2.23q0.03-0.4 0.04-0.81c0-6.26-2.89-11.83-7.41-15.48-6.82 1.17-5.53 9.87-1.58 14.06z"/>
					<path class="s16" d="m362.27 176.3c2.83 1.78 5.82 1.63 7.9-3.03 1.21-2.7 2.09-6.16 1.38-9.11-0.6-2.48-4.17-5.09-7.02-4.69-2.02 3.1-3.2 6.79-3.2 10.77 0 2.12 0.33 4.15 0.94 6.06z"/>
					<path class="s16" d="m394.22 100.71c10.63 1.53 22.57-1.18 32.57-4.62q1.61-0.56 3.19-1.18c-5.5-5.49-13.09-8.89-21.47-8.89-8.96 0-17.01 3.88-22.58 10.04q-0.06 0.54-0.11 1.08c1.26 2.41 6.03 3.23 8.4 3.57z"/>
					<g>
						<g>
							<path fill-rule="evenodd" class="s17" d="m391.82 150.32c-6.29 0-11.38-5.09-11.38-11.38 0-6.3 5.09-11.39 11.38-11.39 6.3 0 11.39 5.09 11.39 11.39 0 6.29-5.09 11.38-11.39 11.38z"/>
						</g>
						<g>
							<path fill-rule="evenodd" class="s6" d="m391.82 147.76c-6.29 0-11.38-5.09-11.38-11.39 0-6.3 5.09-11.38 11.38-11.38 6.3 0 11.39 5.08 11.39 11.38 0 6.3-5.09 11.39-11.39 11.39z"/>
							<path fill-rule="evenodd" class="s7" d="m391.83 143.64c-4.02 0-7.27-3.25-7.27-7.27 0-4.01 3.25-7.26 7.27-7.26 4.01 0 7.26 3.25 7.26 7.26 0 4.02-3.25 7.27-7.26 7.27z"/>
						</g>
						<g>
							<path fill-rule="evenodd" class="s17" d="m425.86 150.32c-6.3 0-11.39-5.09-11.39-11.38 0-6.3 5.09-11.39 11.39-11.39 6.3 0 11.39 5.09 11.39 11.39 0 6.29-5.09 11.38-11.39 11.38z"/>
						</g>
						<g>
							<path class="s6" d="m437.17 137.68c-0.72 6.25-6.37 10.73-12.62 10-6.24-0.72-10.72-6.37-10-12.61 0.72-6.25 6.37-10.73 12.62-10.01 6.24 0.72 10.72 6.37 10 12.62z"/>
							<path class="s7" d="m433.43 138.18c-0.46 3.98-4.06 6.84-8.05 6.38-3.98-0.46-6.84-4.07-6.38-8.05 0.46-3.99 4.06-6.84 8.05-6.38 3.98 0.46 6.84 4.06 6.38 8.05z"/>
						</g>
					</g>
					<path class="s17" d="m281.24 135.69c3.56 0.23 7.7 2.09 10.77 4.87q0.05-0.19 0.09-0.38c0.99-6.21-3.23-12.05-9.44-13.05-6.21-1-12.06 3.23-13.05 9.44q-0.1 0.65-0.13 1.29c4.01-1.52 8.2-2.4 11.76-2.17z"/>
					<g>
						<g>
							<path class="s17" d="m403.21 157.47q5.23 0 10.45 0c1.61 0 1.61-2.5 0-2.5q-5.22 0-10.45 0c-1.61 0-1.61 2.5 0 2.5z"/>
						</g>
					</g>
					<path class="s18" d="m457.87 135.07c0.83-2.06 1.3-4.31 1.3-6.67 0-9.86-8-17.85-17.86-17.85q-1.49 0.01-2.91 0.26c-2.65-14.11-15.02-24.79-29.9-24.79-15.19 0-27.78 11.14-30.05 25.69q-1.39-0.17-2.83-0.17c-13.01 0-23.57 10.55-23.57 23.56 0 9.8 5.98 18.2 14.48 21.75-3.22 3.54-5.21 8.23-5.21 13.39 0 10.99 8.91 19.89 19.9 19.89 5.22 0 9.97-2.03 13.52-5.33 1.23 8.3 8.36 14.68 17 14.68 8.54 0 15.61-6.23 16.96-14.39 7.36-0.91 13.42-5.99 15.74-12.8q2.16 0.5 4.46 0.52c11.01 0 19.94-8.93 19.94-19.95 0-7.78-4.47-14.51-10.97-17.79z"/>
					<path class="s19" d="m438.62 205.31h-3.23c-5.24 0-9.53-4.28-9.53-9.52v-16.65c0-5.24 4.29-9.53 9.53-9.53h3.23c5.23 0 9.52 4.29 9.52 9.53v16.65c0 5.24-4.29 9.52-9.52 9.52z"/>
					<path class="s19" d="m364.36 183.46h-3.23c-5.24 0-9.53-4.28-9.53-9.52v-16.66c0-5.24 4.29-9.52 9.53-9.52h3.23c5.24 0 9.52 4.28 9.52 9.52v16.66c0 5.24-4.28 9.52-9.52 9.52z"/>
					<path fill-rule="evenodd" class="s16" d="m362.94 164.78c-3.85 0-6.97-3.11-6.97-6.96 0-3.86 3.12-6.97 6.97-6.97 3.85 0 6.97 3.11 6.97 6.97 0 3.85-3.12 6.96-6.97 6.96z"/>
					<path fill-rule="evenodd" class="s16" d="m437.25 186.46c-3.85 0-6.97-3.12-6.97-6.97 0-3.85 3.12-6.97 6.97-6.97 3.85 0 6.96 3.12 6.96 6.97 0 3.85-3.11 6.97-6.96 6.97z"/>
				</g>
			</g>
		</g>
		<g style="display: none">
			<g id="Clip-Path" clip-path="url(#cp9)">
				<path fill-rule="evenodd" class="s20" d="m139.35 320.05c-23.97 23.97-62.73 23.97-86.71 0-23.97-23.98-23.97-62.74 0-86.71 23.98-23.98 62.74-23.98 86.71 0 23.98 23.97 23.98 62.73 0 86.71z"/>
			</g>
			<g id="Clip-Path" clip-path="url(#cp10)">
				<g>
					<path class="s21" d="m117 259.85c0 0 17.52-0.23 20.62-17.27 0 0 5.79 24.63-13.13 38.42 0 0 0.63-10.53-7.49-21.15z"/>
					<path class="s21" d="m72 260.62c0 0-17.52-0.23-20.62-17.26 0 0-5.79 24.62 13.13 38.42 0 0-0.63-10.53 7.49-21.16z"/>
					<path class="s22" d="m128.18 340.86h-63.25c-5 0-9.08-4.09-9.08-9.08v-44.61c0-19.15 15.66-34.81 34.8-34.81h11.8c19.15 0 34.81 15.66 34.81 34.81v44.61c0 4.99-4.08 9.08-9.08 9.08z"/>
					<path class="s23" d="m55.85 322.83v7.41c0 5.84 4.77 10.62 10.62 10.62h4.37c-3.3-7.07-8.93-12.98-14.99-18.03z"/>
					<path class="s24" d="m75.85 322.55c-6.15-6.16-12.8-12.1-20-17.03v13.91c7.32 5.86 14.22 12.85 17.89 21.43h16.05c-3.56-6.83-8.46-12.83-13.94-18.31z"/>
					<path class="s24" d="m123.42 317.88c-6.09 3.64-11.9 7.8-17.11 12.63q-5.15 4.75-9.28 10.35h17.41c1.9-2.09 3.93-4 5.83-5.75 4.02-3.69 8.25-7.08 12.82-10.08q2.07-1.34 4.17-2.63v-11.97c-4.97 1.64-10.15 5.25-13.84 7.45z"/>
					<path class="s23" d="m133.17 328.16c-3.92 2.64-7.55 5.63-11.03 8.83-1.31 1.2-2.7 2.49-4.06 3.87h8.56c5.84 0 10.62-4.78 10.62-10.62v-4.7q-2.07 1.27-4.09 2.62z"/>
					<path class="s25" d="m128.18 340.86h-63.25c-5 0-9.08-4.09-9.08-9.08v-44.61c0-19.15 15.66-34.81 34.8-34.81h11.8c19.15 0 34.81 15.66 34.81 34.81v44.61c0 4.99-4.08 9.08-9.08 9.08z"/>
					<g>
						<path fill-rule="evenodd" class="s26" d="m71.55 303.11c-5.56 0-10.06-4.5-10.06-10.06 0-5.57 4.5-10.07 10.06-10.07 5.57 0 10.07 4.5 10.07 10.07 0 5.56-4.5 10.06-10.07 10.06z"/>
					</g>
					<g>
						<path fill-rule="evenodd" class="s6" d="m75.41 300.08c-5.14 2.13-11.02-0.3-13.15-5.44-2.13-5.15 0.3-11.03 5.45-13.16 5.14-2.13 11.02 0.31 13.15 5.45 2.13 5.14-0.3 11.02-5.45 13.15z"/>
						<path fill-rule="evenodd" class="s7" d="m73.99 294.66c-3.55 0-6.42-2.87-6.42-6.42 0-3.55 2.87-6.42 6.42-6.42 3.55 0 6.42 2.87 6.42 6.42 0 3.55-2.87 6.42-6.42 6.42z"/>
					</g>
					<g>
						<path fill-rule="evenodd" class="s26" d="m118.9 303.11c-5.57 0-10.07-4.5-10.07-10.06 0-5.57 4.5-10.07 10.07-10.07 5.57 0 10.07 4.5 10.07 10.07 0 5.56-4.5 10.06-10.07 10.06z"/>
					</g>
					<g>
						<path fill-rule="evenodd" class="s6" d="m122.76 300.07c-5.13 2.15-11.02-0.27-13.16-5.41-2.15-5.14 0.27-11.02 5.41-13.17 5.14-2.14 11.03 0.28 13.17 5.42 2.14 5.13-0.28 11.02-5.42 13.16z"/>
						<path fill-rule="evenodd" class="s7" d="m120.65 294.66c-3.55 0-6.43-2.87-6.43-6.42 0-3.55 2.88-6.42 6.43-6.42 3.55 0 6.42 2.87 6.42 6.42 0 3.55-2.87 6.42-6.42 6.42z"/>
					</g>
					<path class="s26" d="m75.8 273.52c0 0 13.63 1.75 11.17 8.03-2.47 6.27-11.17-8.03-11.17-8.03z"/>
					<path class="s26" d="m113.23 273.84c0 0-13.72 0.84-11.68 7.26 2.04 6.43 11.68-7.26 11.68-7.26z"/>
					<path class="s6" d="m100.48 302.92c0 0-0.61 2.91 2.19 4.31 0 0-0.85-4 0.56-4.64z"/>
					<path class="s6" d="m114.39 306.61c0 0-1.52 2.54-4.43 1.79 0 0 3.28-2.41 2.73-3.78z"/>
					<g>
						<g>
							<path class="s26" d="m99.95 304.18c5.03-1.39 10.61-0.17 14.08 3.83 0.93 1.08 2.49-0.49 1.56-1.57-3.96-4.57-10.48-5.98-16.23-4.39-1.37 0.37-0.79 2.51 0.59 2.13z"/>
						</g>
					</g>
					<path fill-rule="evenodd" class="s27" d="m96.69 268.66c-9.7 0-17.54-2.94-17.54-6.57 0-3.63 7.84-6.56 17.54-6.56 9.7 0 17.53 2.93 17.53 6.56 0 3.63-7.83 6.57-17.53 6.57z"/>
				</g>
			</g>
		</g>
		<g style="display: none">
			<g id="Clip-Path" clip-path="url(#cp11)">
				<path fill-rule="evenodd" class="s28" d="m295.35 320.05c-23.97 23.97-62.73 23.97-86.71 0-23.97-23.98-23.97-62.74 0-86.71 23.98-23.98 62.74-23.98 86.71 0 23.98 23.97 23.98 62.73 0 86.71z"/>
			</g>
			<g id="Clip-Path" clip-path="url(#cp12)">
				<g>
					<path class="s29" d="m270.25 337.35h-38.07c-12.87 0-23.4-10.53-23.4-23.4v-47.86c0-19.96 16.32-36.29 36.28-36.29h12.3c19.96 0 36.29 16.33 36.29 36.29v47.86c0 12.87-10.53 23.4-23.4 23.4z"/>
					<path class="s30" d="m233.81 240.96c6.44 2.67 13.86 3.14 20.75 2.54 6.58-0.58 14.02-2.27 18.99-6.93q0.11-0.11 0.21-0.22c-6.54-4.14-14.28-6.55-22.55-6.55-8.5 0-16.43 2.54-23.08 6.89 1.16 1.84 3.26 3.27 5.68 4.27z"/>
					<path class="s31" d="m270.25 337.35h-38.07c-12.87 0-23.4-10.53-23.4-23.4v-47.86c0-19.96 16.32-36.29 36.28-36.29h12.3c19.96 0 36.29 16.33 36.29 36.29v47.86c0 12.87-10.53 23.4-23.4 23.4z"/>
					<path fill-rule="evenodd" class="s30" d="m271.42 259.69c-3.34 0-6.04-2.7-6.04-6.04 0-3.35 2.7-6.05 6.04-6.05 3.35 0 6.05 2.7 6.05 6.05 0 3.34-2.7 6.04-6.05 6.04z"/>
					<path class="s30" d="m280.66 263.17c0 0.75 0.61 1.35 1.35 1.35 0.75 0 1.35-0.6 1.35-1.35 0-0.74-0.6-1.35-1.35-1.35-0.74 0-1.35 0.61-1.35 1.35z"/>
					<path class="s30" d="m278.96 285.1c0 0.85 0.68 1.53 1.53 1.53 0.84 0 1.52-0.68 1.52-1.53 0-0.84-0.68-1.52-1.52-1.52-0.85 0-1.53 0.68-1.53 1.52z"/>
					<path fill-rule="evenodd" class="s30" d="m216.02 281.55c-1.34 0-2.42-1.09-2.42-2.43 0-1.34 1.08-2.43 2.42-2.43 1.34 0 2.43 1.09 2.43 2.43 0 1.34-1.09 2.43-2.43 2.43z"/>
					<path fill-rule="evenodd" class="s30" d="m224.9 298.18c-0.79 0-1.42-0.63-1.42-1.42 0-0.79 0.63-1.42 1.42-1.42 0.79 0 1.42 0.63 1.42 1.42 0 0.79-0.63 1.42-1.42 1.42z"/>
					<path class="s30" d="m252 315.17c0 2.05 1.66 3.71 3.7 3.71 2.05 0 3.71-1.66 3.71-3.71 0-2.04-1.66-3.7-3.71-3.7-2.04 0-3.7 1.66-3.7 3.7z"/>
					<path class="s30" d="m217.3 319.95c0 1.71 1.38 3.1 3.09 3.1 1.71 0 3.09-1.39 3.09-3.1 0-1.7-1.38-3.09-3.09-3.09-1.71 0-3.09 1.39-3.09 3.09z"/>
					<g>
						<path fill-rule="evenodd" class="s32" d="m248.63 309.54c-12.89 0-23.31-10.43-23.31-23.32 0-12.89 10.42-23.31 23.31-23.31 12.89 0 23.31 10.42 23.31 23.31 0 12.89-10.42 23.32-23.31 23.32z"/>
					</g>
					<g>
						<path fill-rule="evenodd" class="s6" d="m250.63 308.86c-12.89 0-23.31-10.42-23.31-23.31 0-12.9 10.42-23.32 23.31-23.32 12.89 0 23.31 10.42 23.31 23.32 0 12.89-10.42 23.31-23.31 23.31z"/>
						<path fill-rule="evenodd" class="s7" d="m250.88 295.44c-5.75 0-10.39-4.64-10.39-10.39 0-5.75 4.64-10.39 10.39-10.39 5.75 0 10.39 4.64 10.39 10.39 0 5.75-4.64 10.39-10.39 10.39z"/>
					</g>
					<g>
						<path class="s7" d="m246.89 258.14c-12.67 4.77-30.55 0.51-30.55 0.51 15.04 7.46 26.67 2.51 31.49-0.38q-0.47-0.06-0.94-0.13z"/>
						<path class="s7" d="m246.42 258.08c-13.35 2.66-30.46-4.74-30.46-4.74 13.97 10.3 26.66 6.89 31.58 4.89q-0.56-0.07-1.12-0.15z"/>
						<path class="s7" d="m248.8 253.99c-13.57 0.7-29.4-9.01-29.4-9.01 12.65 12.44 26 10.51 30.9 9.22q-0.75-0.1-1.5-0.21z"/>
					</g>
					<g>
						<g>
							<path class="s32" d="m240.87 318.85c4.24 3.51 9.75 3.32 14.02 0 1.17-0.92-0.48-2.54-1.64-1.64-3.19 2.49-7.59 2.62-10.75 0-1.14-0.94-2.78 0.69-1.63 1.64z"/>
						</g>
					</g>
					<g>
						<path fill-rule="evenodd" class="s33" d="m220.94 302.26l-4.98 6.61"/>
						<path fill-rule="evenodd" class="s33" d="m225.6 304.86l-4.98 6.61"/>
						<path fill-rule="evenodd" class="s33" d="m229.91 307.57l-4.99 6.61"/>
						<path fill-rule="evenodd" class="s33" d="m271 302.2l-4.99 6.61"/>
						<path fill-rule="evenodd" class="s33" d="m275.66 304.8l-4.99 6.61"/>
						<path fill-rule="evenodd" class="s33" d="m279.96 307.51l-4.98 6.61"/>
					</g>
					<path class="s29" d="m235.48 330.02c0 0.67-0.25 1.34-0.75 1.85l-6.66 6.66q-0.24 0.25-0.53 0.41l-13.94 13.94-9.26-8.03 15.23-15.22q0.04-0.05 0.09-0.09l3.82-3.83 2.92-2.92c1.02-1.03 2.68-1.03 3.7 0 0.51 0.5 0.77 1.17 0.77 1.84 0 0.67-0.26 1.34-0.77 1.85l-2.92 2.93 1.31 1.31 2.54-2.54c1.01-1.02 2.68-1.02 3.7 0 0.5 0.51 0.75 1.18 0.75 1.84z"/>
					<path class="s29" d="m259.41 330.02c0 0.67 0.25 1.34 0.75 1.85l6.65 6.66q0.25 0.25 0.54 0.41l13.94 13.94 9.26-8.03-15.23-15.22q-0.04-0.05-0.09-0.09l-3.82-3.83-2.92-2.92c-1.02-1.03-2.68-1.03-3.7 0-0.51 0.5-0.77 1.17-0.77 1.84 0 0.67 0.26 1.34 0.77 1.85l2.92 2.93-1.31 1.31-2.54-2.54c-1.01-1.02-2.68-1.02-3.7 0-0.5 0.51-0.75 1.18-0.75 1.84z"/>
					<path class="s31" d="m235.48 329.93c0 0.66-0.25 1.34-0.75 1.85l-6.66 6.66q-0.24 0.24-0.53 0.4l-13.94 13.94-9.26-8.02 15.23-15.23q0.04-0.04 0.09-0.09l3.82-3.83 2.92-2.92c1.02-1.02 2.68-1.02 3.7 0 0.51 0.51 0.77 1.17 0.77 1.85 0 0.67-0.26 1.33-0.77 1.84l-2.92 2.93 1.31 1.31 2.54-2.53c1.01-1.03 2.68-1.03 3.7 0 0.5 0.5 0.75 1.18 0.75 1.84z"/>
					<path class="s31" d="m259.41 329.93c0 0.66 0.25 1.34 0.75 1.85l6.65 6.66q0.25 0.24 0.54 0.4l13.94 13.94 9.26-8.02-15.23-15.23q-0.04-0.04-0.09-0.09l-3.82-3.83-2.92-2.92c-1.02-1.02-2.68-1.02-3.7 0-0.51 0.51-0.77 1.17-0.77 1.85 0 0.67 0.26 1.33 0.77 1.84l2.92 2.93-1.31 1.31-2.54-2.53c-1.01-1.03-2.68-1.03-3.7 0-0.5 0.5-0.75 1.18-0.75 1.84z"/>
					<path class="s29" d="m223.48 325.71l-3.82 3.83q0.03-0.05 0.08-0.11z"/>
				</g>
			</g>
		</g>
		<g style="display: none">
			<g id="Clip-Path" clip-path="url(#cp13)">
				<path fill-rule="evenodd" class="s0" d="m451.1 320.05c-23.98 23.97-62.74 23.97-86.71 0-23.98-23.98-23.98-62.74 0-86.71 23.97-23.98 62.73-23.98 86.71 0 23.97 23.97 23.97 62.73 0 86.71z"/>
			</g>
			<g id="Clip-Path" clip-path="url(#cp14)">
				<g>
					<path class="s34" d="m468.71 298.75h-22.14v-14.84q0.38-0.19 0.75-0.44l23.89-16.13c3.34-2.26 4.22-6.84 1.97-10.18l-1.73-2.56c-2.26-3.34-6.84-4.22-10.18-1.97l-14.7 9.94v-11.56c0-7.02-5.74-12.76-12.77-12.76h-1.71l5.69-15.99c1.36-3.8-0.64-8.01-4.44-9.37l-2.91-1.03c-3.8-1.35-8.01 0.65-9.36 4.44l-7.82 21.95h-11.05l-7.81-21.95c-1.35-3.79-5.57-5.79-9.37-4.44l-2.91 1.03c-3.79 1.36-5.79 5.57-4.44 9.37l5.69 15.99h-2.72c-7.03 0-12.77 5.74-12.77 12.76v9.19l-15.14-10.23c-3.34-2.26-7.92-1.37-10.18 1.97l-1.73 2.56c-2.25 3.34-1.37 7.92 1.97 10.18l23.89 16.13q0.57 0.39 1.19 0.65v17.29h-22.58c-4.03 0-7.33 3.3-7.33 7.33v3.09c0 4.03 3.3 7.33 7.33 7.33h22.58v23.61c0 7.02 5.74 12.76 12.77 12.76h53.16c7.02 0 12.77-5.74 12.77-12.76v-23.61h22.14c4.03 0 7.33-3.3 7.33-7.33v-3.09c0-4.03-3.3-7.33-7.33-7.33z"/>
					<path class="s35" d="m377.91 222.93q3.39-0.11 6.73-0.59c3.61-0.52 7.36-1.31 10.64-2.95q0.09-0.05 0.17-0.1l-1.06-2.99c-1.35-3.8-5.57-5.8-9.36-4.45l-2.91 1.04c-3.8 1.35-5.8 5.57-4.45 9.36z"/>
					<path class="s35" d="m421.67 222.25c3.52 2.24 7.88 3.21 12 3.61q1.32 0.13 2.77 0.18l1.34-3.79c1.36-3.79-0.64-8.01-4.44-9.36l-2.91-1.04c-3.8-1.35-8.01 0.65-9.36 4.45l-1.53 4.3q0.96 0.89 2.13 1.65z"/>
					<path class="s35" d="m475.94 310.28q0.09-0.54 0.1-1.11v-3.09c0-4.03-3.3-7.33-7.33-7.33h-8.78c2.25 5.79 9.24 10.42 16.01 11.53z"/>
					<path class="s35" d="m351.59 298.75h-6.3c-4.03 0-7.32 3.3-7.32 7.33v1.14c5.17-1.24 9.89-4.47 13.62-8.47z"/>
					<path class="s35" d="m345.25 260.6c3.74-1.37 9.2-3.94 12.01-7.57l-4.53-3.06c-3.34-2.26-7.92-1.37-10.17 1.97l-1.73 2.56c-1.54 2.28-1.62 5.14-0.45 7.44q2.46-0.47 4.87-1.34z"/>
					<path class="s35" d="m459.22 254.02c-0.47 5.27 0.53 10.78 2.03 15.69q0.53 1.79 1.22 3.53l8.74-5.9c3.34-2.26 4.22-6.84 1.97-10.18l-1.73-2.56c-2.26-3.34-6.84-4.22-10.18-1.97z"/>
					<path class="s36" d="m468.71 298.75h-22.14v-14.84q0.38-0.19 0.75-0.44l23.89-16.13c3.34-2.26 4.22-6.84 1.97-10.18l-1.73-2.56c-2.26-3.34-6.84-4.22-10.18-1.97l-14.7 9.94v-11.56c0-7.02-5.74-12.76-12.77-12.76h-1.71l5.69-15.99c1.36-3.8-0.64-8.01-4.44-9.37l-2.91-1.03c-3.8-1.35-8.01 0.65-9.36 4.44l-7.82 21.95h-11.05l-7.81-21.95c-1.35-3.79-5.57-5.79-9.37-4.44l-2.91 1.03c-3.79 1.36-5.79 5.57-4.44 9.37l5.69 15.99h-2.72c-7.03 0-12.77 5.74-12.77 12.76v9.19l-15.14-10.23c-3.34-2.26-7.92-1.37-10.18 1.97l-1.73 2.56c-2.25 3.34-1.37 7.92 1.97 10.18l23.89 16.13q0.57 0.39 1.19 0.65v17.29h-22.58c-4.03 0-7.33 3.3-7.33 7.33v3.09c0 4.03 3.3 7.33 7.33 7.33h22.58v23.61c0 7.02 5.74 12.76 12.77 12.76h53.16c7.02 0 12.77-5.74 12.77-12.76v-23.61h22.14c4.03 0 7.33-3.3 7.33-7.33v-3.09c0-4.03-3.3-7.33-7.33-7.33z"/>
					<path class="s35" d="m435.56 248.72h-55.9c-1.33 0-2.41-1.08-2.41-2.41v-0.81c0-1.33 1.08-2.41 2.41-2.41h55.9c1.32 0 2.4 1.08 2.4 2.41v0.81c0 1.33-1.08 2.41-2.4 2.41z"/>
					<g>
						<path fill-rule="evenodd" class="s37" d="m407.61 270.91c-6.08 0-11-4.91-11-10.99 0-6.08 4.92-10.99 11-10.99 6.07 0 10.99 4.91 10.99 10.99 0 6.08-4.92 10.99-10.99 10.99z"/>
					</g>
					<g>
						<path fill-rule="evenodd" class="s37" d="m400.32 284.73c-1.4 5.92-7.31 9.56-13.23 8.16-5.91-1.4-9.56-7.32-8.16-13.23 1.41-5.92 7.32-9.56 13.24-8.16 5.91 1.4 9.56 7.32 8.15 13.23z"/>
					</g>
					<g>
						<path fill-rule="evenodd" class="s37" d="m429.39 292.38c-5.62 2.31-12.03-0.37-14.35-5.99-2.31-5.62 0.37-12.03 5.99-14.34 5.62-2.31 12.04 0.36 14.35 5.99 2.31 5.62-0.37 12.03-5.99 14.34z"/>
					</g>
					<g>
						<path fill-rule="evenodd" class="s6" d="m407.61 267.89c-6.08 0-11-4.91-11-10.99 0-6.08 4.92-10.99 11-10.99 6.07 0 10.99 4.91 10.99 10.99 0 6.08-4.92 10.99-10.99 10.99z"/>
						<path fill-rule="evenodd" class="s7" d="m407.61 263.85c-3.88 0-7.01-3.13-7.01-7.01 0-3.88 3.13-7.01 7.01-7.01 3.87 0 7.01 3.13 7.01 7.01 0 3.88-3.14 7.01-7.01 7.01z"/>
					</g>
					<g>
						<path fill-rule="evenodd" class="s6" d="m389.64 290.48c-6.08 0-10.99-4.92-10.99-10.99 0-6.08 4.91-11 10.99-11 6.08 0 10.99 4.92 10.99 11 0 6.07-4.91 10.99-10.99 10.99z"/>
						<path fill-rule="evenodd" class="s7" d="m389.64 286.44c-3.88 0-7.01-3.13-7.01-7.01 0-3.88 3.13-7.01 7.01-7.01 3.88 0 7.01 3.13 7.01 7.01 0 3.88-3.13 7.01-7.01 7.01z"/>
					</g>
					<g>
						<path fill-rule="evenodd" class="s6" d="m425.23 290.48c-6.08 0-10.99-4.92-10.99-10.99 0-6.08 4.91-11 10.99-11 6.08 0 10.99 4.92 10.99 11 0 6.07-4.91 10.99-10.99 10.99z"/>
						<path fill-rule="evenodd" class="s7" d="m425.23 286.44c-3.87 0-7.01-3.13-7.01-7.01 0-3.88 3.14-7.01 7.01-7.01 3.88 0 7.01 3.13 7.01 7.01 0 3.88-3.13 7.01-7.01 7.01z"/>
					</g>
					<g>
						<g>
							<path class="s7" d="m414.13 298.27c-6.21 2.85-13.34 3.2-19.69 0.67q-0.15-0.06-0.3-0.12c-10.03-4.05-18.07 10.62-5.42 18.1 12.66 7.49 30.9 5.06 38.37-4.73 6.54-8.57-0.87-19.46-12.96-13.92z"/>
							<g>
								<g id="Clip-Path" clip-path="url(#cp15)">
									<path class="s13" d="m388.69 317.4c0 0-1.89-10.32 16.78-3.39 0 0 14.43-9.24 19.45 0.92 0 0-13.68 14.22-36.23 2.47z"/>
								</g>
							</g>
						</g>
						<g>
							<g id="Clip-Path" clip-path="url(#cp16)">
								<path class="s6" d="m387.07 297.98c0 0-3.89 7.5 6.62 8.9 3.45 0.46 21.26 0.1 24.83-0.91 9.88-2.8 6.2-9.89 6.2-9.89 0 0-34.24-3.62-37.65 1.9z"/>
							</g>
						</g>
					</g>
					<path class="s37" d="m389.64 321.4c0 0 18.07 9.54 32.24 0 0 0-15.48 13.53-32.24 0z"/>
					<path fill-rule="evenodd" class="s35" d="m386.77 337.95c-3.21 0-5.8-2.59-5.8-5.8 0-3.21 2.59-5.8 5.8-5.8 3.21 0 5.8 2.59 5.8 5.8 0 3.21-2.59 5.8-5.8 5.8z"/>
					<path class="s35" d="m418.6 341.28c0 2.46 1.99 4.46 4.46 4.46 2.46 0 4.46-2 4.46-4.46 0-2.46-2-4.46-4.46-4.46-2.47 0-4.46 2-4.46 4.46z"/>
					<path class="s35" d="m437.96 304.28c0 0.72 0.59 1.3 1.3 1.3 0.72 0 1.3-0.58 1.3-1.3 0-0.71-0.58-1.29-1.3-1.29-0.71 0-1.3 0.58-1.3 1.29z"/>
					<path class="s35" d="m436.22 262.81c0 1.2 0.97 2.17 2.17 2.17 1.2 0 2.17-0.97 2.17-2.17 0-1.19-0.97-2.17-2.17-2.17-1.2 0-2.17 0.97-2.17 2.17z"/>
					<path class="s35" d="m378.65 260.83c0 3.03 2.46 5.49 5.5 5.49 3.03 0 5.49-2.46 5.49-5.49 0-3.04-2.46-5.5-5.49-5.5-3.04 0-5.5 2.46-5.5 5.5z"/>
					<path class="s35" d="m406.02 283.88c0 0.96 0.77 1.74 1.73 1.74 0.95 0 1.73-0.78 1.73-1.74 0-0.95-0.78-1.73-1.73-1.73-0.96 0-1.73 0.78-1.73 1.73z"/>
					<path fill-rule="evenodd" class="s35" d="m379.94 300.33c-1.49 0-2.69-1.2-2.69-2.69 0-1.49 1.2-2.69 2.69-2.69 1.49 0 2.69 1.2 2.69 2.69 0 1.49-1.2 2.69-2.69 2.69z"/>
					<path class="s35" d="m358.91 312.35c0 1.95 1.58 3.54 3.54 3.54 1.96 0 3.54-1.59 3.54-3.54 0-1.96-1.58-3.55-3.54-3.55-1.96 0-3.54 1.59-3.54 3.55z"/>
					<path class="s35" d="m450.71 311.62c0 1.56 1.26 2.82 2.81 2.82 1.56 0 2.82-1.26 2.82-2.82 0-1.56-1.26-2.82-2.82-2.82-1.55 0-2.81 1.27-2.81 2.82z"/>
					<path class="s35" d="m449.18 268.65c0 0.43 0.34 0.77 0.76 0.77 0.42 0 0.77-0.34 0.77-0.77 0-0.42-0.35-0.76-0.77-0.76-0.42 0-0.76 0.34-0.76 0.76z"/>
				</g>
			</g>
		</g>
		<g style="display: none">
			<g id="Clip-Path" clip-path="url(#cp17)">
				<path fill-rule="evenodd" class="s38" d="m218.84 442.67c-23.97 23.98-62.73 23.98-86.71 0-23.97-23.97-23.97-62.73 0-86.71 23.98-23.97 62.74-23.97 86.71 0 23.98 23.98 23.98 62.74 0 86.71z"/>
			</g>
			<g id="Clip-Path" clip-path="url(#cp18)">
				<g>
					<g>
						<path class="s39" d="m143.39 410.37l4.78 9.38c-5.17 2.63-10.69 3.88-16.13 3.88-12.95 0-25.47-7.09-31.76-19.4-7.4-14.5-1.63-32.32 12.87-39.73 12.12-6.19 27.01-1.36 33.2 10.76 2.53 4.94 2.98 10.57 1.26 15.86-1.7 5.28-5.38 9.59-10.32 12.11-8.69 4.43-19.36 0.98-23.8-7.71-3.81-7.47-0.83-16.64 6.63-20.45 4.86-2.49 10.55-1.66 14.49 1.64-4.21-4.41-10.98-5.75-16.67-2.83-9.34 4.75-13.05 16.23-8.28 25.56 6.28 12.32 21.42 17.21 33.73 10.93z"/>
					</g>
					<g>
						<path class="s39" d="m251.1 406.68c-6.3 12.3-18.81 19.4-31.77 19.4-5.44 0-10.96-1.26-16.12-3.89l4.77-9.38c12.32 6.29 27.46 1.39 33.74-10.92 4.77-9.34 1.05-20.81-8.28-25.57-5.7-2.91-12.47-1.58-16.68 2.83 3.95-3.29 9.63-4.12 14.5-1.64 7.46 3.81 10.44 12.99 6.63 20.45-4.45 8.7-15.12 12.15-23.8 7.72-4.95-2.53-8.62-6.83-10.33-12.12-1.71-5.28-1.26-10.91 1.27-15.86 6.18-12.13 21.08-16.95 33.19-10.76 14.51 7.41 20.28 25.23 12.88 39.74z"/>
					</g>
					<g>
						<path class="s40" d="m143.4 410.37l4.78 9.38c-5.17 2.63-10.68 3.88-16.12 3.88-12.96 0-25.48-7.09-31.77-19.4-7.4-14.5-1.63-32.32 12.87-39.73 12.12-6.19 27.01-1.36 33.2 10.76 2.53 4.94 2.98 10.57 1.26 15.86-1.7 5.28-5.38 9.59-10.32 12.11-8.69 4.43-19.36 0.98-23.8-7.71-3.81-7.47-0.83-16.64 6.63-20.45 4.86-2.49 10.55-1.66 14.49 1.64-4.21-4.41-10.98-5.75-16.67-2.83-9.34 4.75-13.05 16.23-8.28 25.56 6.28 12.32 21.42 17.21 33.73 10.93z"/>
					</g>
					<g>
						<path class="s40" d="m251.11 406.68c-6.3 12.3-18.81 19.4-31.77 19.4-5.44 0-10.95-1.26-16.12-3.89l4.78-9.38c12.31 6.29 27.45 1.39 33.73-10.92 4.77-9.34 1.05-20.81-8.28-25.57-5.7-2.91-12.46-1.58-16.68 2.83 3.95-3.29 9.63-4.12 14.5-1.64 7.46 3.81 10.44 12.99 6.63 20.45-4.44 8.7-15.12 12.15-23.8 7.72-4.95-2.53-8.62-6.83-10.33-12.12-1.71-5.28-1.26-10.91 1.27-15.86 6.19-12.13 21.08-16.95 33.2-10.76 14.5 7.41 20.27 25.23 12.87 39.74z"/>
					</g>
					<path fill-rule="evenodd" class="s41" d="m145.78 415.06c-14.92 7.62-33.19 1.7-40.81-13.22-6.1-11.94-1.36-26.56 10.57-32.65 9.55-4.88 21.25-1.09 26.12 8.46 3.9 7.64 0.87 16.99-6.77 20.89-6.11 3.12-13.59 0.7-16.71-5.41-2.5-4.89-0.56-10.88 4.33-13.37 3.91-2 8.7-0.45 10.7 3.46 1.6 3.13 0.36 6.96-2.77 8.56-2.51 1.28-5.57 0.29-6.85-2.22-1.02-2-0.23-4.45 1.77-5.48 1.61-0.81 3.57-0.18 4.39 1.42 0.65 1.29 0.14 2.85-1.14 3.51-1.02 0.52-2.28 0.12-2.8-0.91-0.42-0.82-0.1-1.82 0.72-2.24 0.66-0.34 1.46-0.08 1.8 0.58"/>
					<path fill-rule="evenodd" class="s41" d="m205.59 417.5c14.93 7.62 33.2 1.7 40.82-13.22 6.09-11.94 1.36-26.55-10.58-32.65-9.55-4.88-21.24-1.09-26.12 8.46-3.9 7.64-0.87 17 6.77 20.9 6.11 3.12 13.6 0.69 16.72-5.42 2.49-4.89 0.55-10.88-4.34-13.37-3.91-2-8.7-0.45-10.69 3.46-1.6 3.13-0.36 6.97 2.77 8.56 2.5 1.28 5.57 0.29 6.85-2.21 1.02-2.01 0.22-4.46-1.78-5.48-1.6-0.82-3.56-0.18-4.38 1.42-0.65 1.28-0.15 2.85 1.14 3.5 1.02 0.53 2.28 0.12 2.8-0.91 0.42-0.82 0.1-1.82-0.73-2.24-0.65-0.33-1.46-0.07-1.79 0.58"/>
					<path class="s42" d="m215.49 465.17v-60.15c0-22-18-40-40-40-22 0-39.99 18-39.99 40v60.15z"/>
					<path class="s43" d="m154.77 375.72q1.57-0.19 2.81-1.13c2.07-1.16 3.94-3.14 6.45-3.32 1.87-0.13 3.36 0.65 4.39 2.18 1.32 1.96 0.12 3.95 0.89 5.74 0.67 1.55 2.32 1.38 4.15 0.8 2.21-0.69 3.04-2.4 4.66-3.73 1.72-1.4 2.74-1.6 4.87-0.97 4.22 1.24 7.52 4.58 9.77-1.18 0.59-1.51 1.01-3.07 1.46-4.63-5.49-2.84-11.69-4.46-18.26-4.46-8.95 0-17.23 2.98-23.91 7.99q0.34 1.23 2.72 2.71z"/>
					<path class="s40" d="m215.49 465.17v-60.15c0-22-18-40-40-40-22 0-39.99 18-39.99 40v60.15z"/>
					<g>
						<path fill-rule="evenodd" class="s44" d="m156.92 418.38c-6.62 0-11.97-5.35-11.97-11.97 0-6.62 5.35-11.97 11.97-11.97 6.63 0 11.98 5.35 11.98 11.97 0 6.62-5.35 11.97-11.98 11.97z"/>
						<path fill-rule="evenodd" class="s6" d="m156.92 415.1c-6.62 0-11.97-5.36-11.97-11.98 0-6.62 5.35-11.97 11.97-11.97 6.63 0 11.98 5.35 11.98 11.97 0 6.62-5.35 11.98-11.98 11.98z"/>
						<path fill-rule="evenodd" class="s7" d="m164.44 405.04c-0.67 4.17-4.59 7-8.76 6.32-4.17-0.67-6.99-4.59-6.31-8.76 0.67-4.16 4.59-6.99 8.75-6.31 4.17 0.67 7 4.59 6.32 8.75z"/>
					</g>
					<g>
						<path fill-rule="evenodd" class="s44" d="m192.54 418.38c-6.62 0-11.97-5.35-11.97-11.97 0-6.62 5.35-11.97 11.97-11.97 6.62 0 11.97 5.35 11.97 11.97 0 6.62-5.35 11.97-11.97 11.97z"/>
						<path fill-rule="evenodd" class="s6" d="m192.54 415.1c-6.62 0-11.97-5.36-11.97-11.98 0-6.62 5.35-11.97 11.97-11.97 6.62 0 11.97 5.35 11.97 11.97 0 6.62-5.35 11.98-11.97 11.98z"/>
						<path fill-rule="evenodd" class="s7" d="m200.06 405.05c-0.67 4.16-4.59 6.99-8.76 6.31-4.17-0.67-6.99-4.59-6.32-8.75 0.68-4.17 4.59-7 8.76-6.32 4.17 0.67 6.99 4.59 6.32 8.76z"/>
					</g>
					<g>
						<path class="s7" d="m165.86 431.16c0 9.76 4.52 17.67 10.1 17.67 5.57 0 10.09-7.91 10.09-17.67 0-9.76-4.52-17.67-10.09-17.67-5.58 0-10.1 7.91-10.1 17.67z"/>
						<g>
							<g id="Clip-Path" clip-path="url(#cp19)">
								<path class="s13" d="m164.35 445.68c0 0-1.38-7.71 12.31-2.53 0 0 10.58-6.9 14.26 0.69 0 0-10.03 10.61-26.57 1.84z"/>
							</g>
						</g>
					</g>
				</g>
			</g>
		</g>
		<g>
			<g id="Clip-Path" clip-path="url(#cp20)">
				<path fill-rule="evenodd" class="s45" d="m379.77 442.67c-23.98 23.98-62.73 23.98-86.71 0-23.97-23.97-23.97-62.73 0-86.71 23.98-23.97 62.73-23.97 86.71 0 23.97 23.98 23.97 62.74 0 86.71z"/>
			</g>
			<g id="Clip-Path" clip-path="url(#cp21)">
				<g>
					<path fill-rule="evenodd" class="s46" d="m288.23 449.83c-6.11 2.55-13.12-0.33-15.68-6.44-2.55-6.12 0.33-13.13 6.44-15.68 6.12-2.56 13.13 0.32 15.68 6.44 2.56 6.11-0.32 13.12-6.44 15.68z"/>
					<path fill-rule="evenodd" class="s46" d="m383.84 468.17c-8.69 0-15.72-7.02-15.72-15.72 0-8.7 7.03-15.72 15.72-15.72 8.7 0 15.73 7.02 15.73 15.72 0 8.7-7.03 15.72-15.73 15.72z"/>
					<path fill-rule="evenodd" class="s46" d="m385.49 406.59c-8.7 0-15.73-7.03-15.73-15.72 0-8.7 7.03-15.73 15.73-15.73 8.69 0 15.72 7.03 15.72 15.73 0 8.69-7.03 15.72-15.72 15.72z"/>
					<path fill-rule="evenodd" class="s46" d="m308.56 398.55c-7.17 8.16-19.57 8.95-27.73 1.78-8.15-7.18-8.95-19.57-1.77-27.73 7.18-8.16 19.57-8.95 27.73-1.78 8.16 7.18 8.95 19.57 1.77 27.73z"/>
					<path fill-rule="evenodd" class="s47" d="m339.37 453.63c-8.22 7.11-20.61 6.22-27.72-2-7.11-8.22-6.21-20.6 2-27.71 8.22-7.12 20.61-6.22 27.72 2 7.11 8.21 6.22 20.6-2 27.71z"/>
					<path class="s47" d="m353.08 458.72h-32.86c-19.63 0-35.68-16.06-35.68-35.68v-16.24c0-19.62 16.05-35.68 35.68-35.68h32.86c19.62 0 35.67 16.06 35.67 35.68v16.24c0 19.62-16.05 35.68-35.67 35.68z"/>
					<path class="s48" d="m341.54 390.69c8.78-1.72 12.25-11.21 13.46-19.57h-35.14c-0.94 10.66 10.9 21.68 21.68 19.57z"/>
					<path class="s49" d="m353.08 458.72h-32.86c-19.63 0-35.68-16.06-35.68-35.68v-16.24c0-19.62 16.05-35.68 35.68-35.68h32.86c19.62 0 35.67 16.06 35.67 35.68v16.24c0 19.62-16.05 35.68-35.67 35.68z"/>
					<g>
						<path fill-rule="evenodd" class="s46" d="m315.11 425.89c-7.05 0-12.75-5.7-12.75-12.76 0-7.05 5.7-12.75 12.75-12.75 7.06 0 12.76 5.7 12.76 12.75 0 7.06-5.7 12.76-12.76 12.76z"/>
						<path fill-rule="evenodd" class="s6" d="m315.11 422.38c-7.05 0-12.75-5.7-12.75-12.75 0-7.05 5.7-12.75 12.75-12.75 7.06 0 12.76 5.7 12.76 12.75 0 7.05-5.7 12.75-12.76 12.75z"/>
						<path fill-rule="evenodd" class="s7" d="m315.11 418.51c-4.5 0-8.13-3.64-8.13-8.14 0-4.5 3.63-8.13 8.13-8.13 4.5 0 8.14 3.63 8.14 8.13 0 4.5-3.64 8.14-8.14 8.14z"/>
					</g>
					<g>
						<path fill-rule="evenodd" class="s46" d="m357.08 425.89c-7.06 0-12.76-5.7-12.76-12.76 0-7.05 5.7-12.75 12.76-12.75 7.05 0 12.75 5.7 12.75 12.75 0 7.06-5.7 12.76-12.75 12.76z"/>
						<path fill-rule="evenodd" class="s6" d="m357.08 422.38c-7.06 0-12.76-5.7-12.76-12.75 0-7.05 5.7-12.75 12.76-12.75 7.05 0 12.75 5.7 12.75 12.75 0 7.05-5.7 12.75-12.75 12.75z"/>
						<path fill-rule="evenodd" class="s7" d="m357.08 418.51c-4.5 0-8.14-3.64-8.14-8.14 0-4.5 3.64-8.13 8.14-8.13 4.5 0 8.13 3.63 8.13 8.13 0 4.5-3.63 8.14-8.13 8.14z"/>
					</g>
					<g>
						<g>
							<path class="s46" d="m346.65 452.27c6.43-0.68 12.7-4.74 13.69-11.49 0.25-1.77-2.45-2.53-2.71-0.75-0.54 3.74-2.76 6.4-6.14 7.99-1.07 0.51-2.21 0.88-3.37 1.16q-0.6 0.14-1.2 0.25c-0.36 0.06-0.36 0.05-0.27 0.04-1.77 0.19-1.79 2.99 0 2.8z"/>
						</g>
					</g>
					<path class="s48" d="m307.92 380.09h-5.14c-0.73 0-1.4 0.39-1.77 1.02l-2.57 4.45c-0.36 0.63-0.36 1.41 0 2.04l2.57 4.45c0.37 0.63 1.04 1.02 1.77 1.02h5.14c0.73 0 1.4-0.39 1.76-1.02l2.57-4.45c0.37-0.63 0.37-1.41 0-2.04l-2.57-4.45c-0.36-0.63-1.04-1.02-1.76-1.02z"/>
					<path class="s48" d="m295.11 396.32h-2.32c-0.73 0-1.41 0.39-1.77 1.03l-1.16 2.01c-0.37 0.63-0.37 1.41 0 2.04l1.16 2.01c0.36 0.63 1.04 1.02 1.77 1.02h2.32c0.73 0 1.4-0.39 1.77-1.02l1.16-2.01c0.36-0.63 0.36-1.41 0-2.04l-1.16-2.01c-0.37-0.64-1.04-1.03-1.77-1.03z"/>
					<path class="s48" d="m296.18 413.7h-1.16c-0.73 0-1.41 0.39-1.77 1.02l-0.59 1.01c-0.36 0.63-0.36 1.41 0 2.04l0.59 1.01c0.36 0.64 1.04 1.03 1.77 1.03h1.16c0.73 0 1.41-0.39 1.77-1.03l0.59-1.01c0.36-0.63 0.36-1.41 0-2.04l-0.59-1.01c-0.36-0.64-1.04-1.02-1.77-1.02z"/>
					<path class="s48" d="m312.07 432.77h-1.49c-0.73 0-1.4 0.39-1.77 1.02l-0.74 1.29c-0.37 0.63-0.37 1.41 0 2.05l0.74 1.29c0.37 0.63 1.04 1.02 1.77 1.02h1.49c0.73 0 1.41-0.39 1.77-1.02l0.75-1.29c0.37-0.64 0.37-1.41 0-2.05l-0.75-1.29c-0.36-0.63-1.03-1.02-1.77-1.02z"/>
					<path class="s48" d="m368.9 430.42h-0.39c-0.72 0-1.38 0.39-1.74 1.01l-0.19 0.34c-0.36 0.62-0.36 1.38 0 2l0.19 0.34c0.36 0.62 1.02 1 1.74 1h0.39c0.72 0 1.38-0.38 1.74-1l0.19-0.34c0.36-0.62 0.36-1.38 0-2l-0.19-0.34c-0.36-0.62-1.02-1.01-1.74-1.01z"/>
					<path class="s48" d="m381.84 391.82h-3.48c-0.73 0-1.4 0.39-1.77 1.02l-1.74 3.01c-0.36 0.64-0.36 1.41 0 2.05l1.74 3.01c0.37 0.63 1.04 1.02 1.77 1.02h3.48c0.73 0 1.41-0.39 1.77-1.02l1.74-3.01c0.37-0.63 0.37-1.41 0-2.05l-1.74-3.01c-0.36-0.63-1.04-1.02-1.77-1.02z"/>
					<path class="s48" d="m380.26 407.74h-0.31c-0.58 0-1.12 0.31-1.41 0.81l-0.15 0.27c-0.29 0.5-0.29 1.12 0 1.62l0.15 0.27c0.29 0.5 0.83 0.81 1.41 0.81h0.31c0.58 0 1.11-0.31 1.4-0.81l0.16-0.27c0.29-0.5 0.29-1.12 0-1.62l-0.16-0.27c-0.29-0.5-0.82-0.81-1.4-0.81z"/>
					<path class="s48" d="m382.85 416.75h-1.13c-0.73 0-1.4 0.39-1.77 1.02l-0.56 0.98c-0.37 0.63-0.37 1.41 0 2.05l0.56 0.97c0.37 0.64 1.04 1.03 1.77 1.03h1.13c0.73 0 1.41-0.39 1.77-1.03l0.57-0.97c0.36-0.64 0.36-1.42 0-2.05l-0.57-0.98c-0.36-0.63-1.04-1.02-1.77-1.02z"/>
					<g>
						<g id="Clip-Path" clip-path="url(#cp22)">
							<path class="s46" d="m343.41 445.64h-13.53c-2.82 0-4.99-2.51-4.58-5.31l4.95-33.77c0.33-2.27 2.28-3.96 4.58-3.96h3.63c2.3 0 4.25 1.69 4.58 3.96l4.95 33.77c0.41 2.8-1.75 5.31-4.58 5.31z"/>
						</g>
						<g id="Clip-Path" clip-path="url(#cp23)">
							<path class="s50" d="m342.08 437.71h-10.79c-2.25 0-3.98-2-3.65-4.23l3.94-26.92c0.27-1.81 1.82-3.16 3.66-3.16h2.89c1.83 0 3.39 1.35 3.65 3.16l3.95 26.92c0.33 2.23-1.4 4.23-3.65 4.23z"/>
						</g>
						<g id="Clip-Path" clip-path="url(#cp24)">
							<path fill-rule="evenodd" class="s51" d="m325.25 407.61h24.78v3h-24.78z"/>
						</g>
						<g id="Clip-Path" clip-path="url(#cp25)">
							<path fill-rule="evenodd" class="s51" d="m325.25 414.15h24.78v3.01h-24.78z"/>
						</g>
						<g id="Clip-Path" clip-path="url(#cp26)">
							<path fill-rule="evenodd" class="s51" d="m325.25 420.69h24.78v3.01h-24.78z"/>
						</g>
						<g id="Clip-Path" clip-path="url(#cp27)">
							<path fill-rule="evenodd" class="s51" d="m325.25 427.24h24.78v3.01h-24.78z"/>
						</g>
						<g id="Clip-Path" clip-path="url(#cp28)">
							<path fill-rule="evenodd" class="s51" d="m325.25 433.78h24.78v3.01h-24.78z"/>
						</g>
					</g>
				</g>
			</g>
		</g>
	</g>
</svg>
