<svg version="1.2" xmlns="http://www.w3.org/2000/svg" viewBox="0 0 123 121" width="123" height="121"><defs><clipPath clipPathUnits="userSpaceOnUse" id="cp1"><path d="m122.05 61.61c0 33.9-27.4 61.31-61.31 61.31-33.9 0-61.31-27.41-61.31-61.31 0-33.91 27.41-61.32 61.31-61.32 33.91 0 61.31 27.41 61.31 61.32z"/></clipPath><clipPath clipPathUnits="userSpaceOnUse" id="cp2"><path d="m105.1 102.96c-23.98 23.97-62.74 23.97-86.71 0-23.98-23.98-23.98-62.74 0-86.71 23.97-23.98 62.73-23.98 86.71 0 23.97 23.97 23.97 62.73 0 86.71z"/></clipPath></defs><style>.a{fill:#553982}.b{fill:#dea09f}.c{fill:#f2bdbd}.d{fill:#c16c6c}.e{fill:#fff}.f{fill:#231f20}.g{fill:none;stroke:#c16c6c;stroke-miterlimit:10;stroke-width:2}.h{fill:#dea09f;stroke:#c16c6c;stroke-miterlimit:10;stroke-width:2}</style><g clip-path="url(#cp1)"><path fill-rule="evenodd" class="a" d="m105.1 103c-24 23.9-62.7 23.9-86.7 0-24-24-24-62.8 0-86.8 24-23.9 62.7-23.9 86.7 0 24 24 24 62.8 0 86.8z"/></g><g clip-path="url(#cp2)"><path class="b" d="m111.9 54.1c0.8-2.1 1.3-4.3 1.3-6.7 0-9.9-8-17.9-17.9-17.9q-1.5 0.1-2.9 0.3c-2.7-14.1-15-24.8-29.9-24.8-15.2 0-27.8 11.2-30.1 25.7q-1.3-0.2-2.8-0.2c-13 0-23.6 10.6-23.6 23.6 0 9.8 6 18.2 14.5 21.7-3.2 3.6-5.2 8.3-5.2 13.4 0 11 8.9 19.9 19.9 19.9 5.2 0 10-2 13.5-5.3 1.3 8.3 8.4 14.7 17 14.7 8.6 0 15.6-6.3 17-14.4 7.4-0.9 13.4-6 15.7-12.8q2.2 0.5 4.5 0.5c11 0 19.9-8.9 19.9-19.9 0-7.8-4.4-14.6-10.9-17.8z"/><path class="c" d="m7.5 47.9c2.8 0 5.8-0.8 7.7-1.4 5.2-1.5 14.3-5.1 11.7-12.2q-0.3-0.9-0.8-1.5c-8.6 1.3-15.7 7.2-18.6 15.1z"/><path class="c" d="m102.3 41.8c2.9 0.2 5.7-0.3 8.4-1.4-3.1-5.2-8.6-8.7-15-8.8q-0.1 0.1-0.2 0.2c-5.4 6 1.6 9.8 6.8 10z"/><path class="c" d="m113.8 72.4c2.4 2.5 6 3.5 9 2.3q0-0.4 0-0.8c0-6.3-2.9-11.9-7.4-15.5-6.8 1.1-5.5 9.8-1.6 14z"/><path class="c" d="m16.3 97.3c2.8 1.8 5.8 1.6 7.9-3 1.2-2.7 2.1-6.2 1.3-9.1-0.6-2.5-4.1-5.1-7-4.7-2 3.1-3.2 6.8-3.2 10.7q0 3.2 1 6.1z"/><path class="c" d="m48.2 21.7c10.6 1.5 22.6-1.2 32.6-4.6q1.6-0.6 3.2-1.2c-5.5-5.5-13.1-8.9-21.5-8.9-9 0-17 3.9-22.6 10.1q0 0.5-0.1 1c1.3 2.4 6 3.3 8.4 3.6z"/><path fill-rule="evenodd" class="d" d="m45.8 71.3c-6.3 0-11.4-5.1-11.4-11.4 0-6.3 5.1-11.4 11.4-11.4 6.3 0 11.4 5.1 11.4 11.4 0 6.3-5.1 11.4-11.4 11.4z"/><path fill-rule="evenodd" class="e" d="m45.8 68.8c-6.3 0-11.4-5.1-11.4-11.4 0-6.3 5.1-11.4 11.4-11.4 6.3 0 11.4 5.1 11.4 11.4 0 6.3-5.1 11.4-11.4 11.4z"/><path fill-rule="evenodd" class="f" d="m45.8 64.6c-4 0-7.2-3.2-7.2-7.2 0-4 3.2-7.3 7.2-7.3 4 0 7.3 3.3 7.3 7.3 0 4-3.3 7.2-7.3 7.2z"/><path fill-rule="evenodd" class="d" d="m79.9 71.3c-6.3 0-11.4-5.1-11.4-11.4 0-6.3 5.1-11.4 11.4-11.4 6.3 0 11.3 5.1 11.3 11.4 0 6.3-5 11.4-11.3 11.4z"/><path class="e" d="m91.2 58.7c-0.8 6.2-6.4 10.7-12.7 10-6.2-0.7-10.7-6.4-10-12.6 0.8-6.3 6.4-10.8 12.7-10 6.2 0.7 10.7 6.3 10 12.6z"/><path class="f" d="m87.4 59.2c-0.4 4-4 6.8-8 6.4-4-0.5-6.9-4.1-6.4-8.1 0.5-4 4.1-6.8 8-6.4 4 0.5 6.9 4.1 6.4 8.1z"/><path class="d" d="m57.2 78.5q5.2 0 10.5 0c1.6 0 1.6-2.5 0-2.5q-5.3 0-10.5 0c-1.6 0-1.6 2.5 0 2.5z"/><path class="g" d="m111.9 56.1c0.8-2.1 1.3-4.3 1.3-6.7 0-9.9-8-17.9-17.9-17.9q-1.5 0.1-2.9 0.3c-2.7-14.1-15-24.8-29.9-24.8-15.2 0-27.8 11.2-30.1 25.7q-1.3-0.2-2.8-0.2c-13 0-23.6 10.6-23.6 23.6 0 9.8 6 18.2 14.5 21.7-3.2 3.6-5.2 8.3-5.2 13.4 0 11 8.9 19.9 19.9 19.9 5.2 0 10-2 13.5-5.3 1.3 8.3 8.4 14.7 17 14.7 8.6 0 15.6-6.3 17-14.4 7.4-0.9 13.4-6 15.7-12.8q2.2 0.5 4.5 0.5c11 0 19.9-8.9 19.9-19.9 0-7.8-4.4-14.6-10.9-17.8z"/><path class="h" d="m92.6 126.3h-3.2c-5.3 0-9.5-4.3-9.5-9.5v-16.7c0-5.2 4.2-9.5 9.5-9.5h3.2c5.2 0 9.5 4.3 9.5 9.5v16.7c0 5.2-4.3 9.5-9.5 9.5z"/><path class="h" d="m18.4 104.5h-3.3c-5.2 0-9.5-4.3-9.5-9.6v-16.6c0-5.3 4.3-9.5 9.5-9.5h3.3c5.2 0 9.5 4.2 9.5 9.5v16.6c0 5.3-4.3 9.6-9.5 9.6z"/><path fill-rule="evenodd" class="c" d="m16.9 85.8c-3.8 0-6.9-3.1-6.9-7 0-3.8 3.1-7 6.9-7 3.9 0 7 3.2 7 7 0 3.9-3.1 7-7 7z"/><path fill-rule="evenodd" class="c" d="m91.2 107.5c-3.8 0-6.9-3.2-6.9-7 0-3.9 3.1-7 6.9-7 3.9 0 7 3.1 7 7 0 3.8-3.1 7-7 7z"/></g></svg>