<svg version="1.2" xmlns="http://www.w3.org/2000/svg" viewBox="0 0 124 123" width="124" height="123"><defs><clipPath clipPathUnits="userSpaceOnUse" id="cp1"><path d="m123.31 61.69c0 33.91-27.41 61.31-61.31 61.31-33.91 0-61.32-27.4-61.32-61.31 0-33.9 27.41-61.31 61.32-61.31 33.9 0 61.31 27.41 61.31 61.31z"/></clipPath><clipPath clipPathUnits="userSpaceOnUse" id="cp2"><path d="m105.35 105.05c-23.97 23.97-62.73 23.97-86.71 0-23.97-23.98-23.97-62.74 0-86.71 23.98-23.98 62.74-23.98 86.71 0 23.98 23.97 23.98 62.73 0 86.71z"/></clipPath></defs><style>.a{fill:#f7da64}.b{fill:#ede0a9;stroke:#295d6b;stroke-miterlimit:10;stroke-width:1.8}.c{fill:#2173a5}.d{fill:#2581a5}.e{fill:#3ca6bf}.f{fill:none;stroke:#295d6b;stroke-miterlimit:10;stroke-width:1.8}.g{fill:#295d6b}.h{fill:#fff}.i{fill:#231f20}.j{fill:#3a94c1}</style><g clip-path="url(#cp1)"><path fill-rule="evenodd" class="a" d="m105.3 105c-23.9 24-62.7 24-86.7 0-23.9-23.9-23.9-62.7 0-86.7 24-23.9 62.8-23.9 86.7 0 24 24 24 62.8 0 86.7z"/></g><g clip-path="url(#cp2)"><path class="b" d="m83 44.8c0 0 17.5-0.2 20.6-17.2 0 0 5.8 24.6-13.1 38.4 0 0 0.6-10.5-7.5-21.2z"/><path class="b" d="m38 45.6c0 0-17.5-0.2-20.6-17.2 0 0-5.8 24.6 13.1 38.4 0 0-0.6-10.6 7.5-21.2z"/><path class="c" d="m94.2 125.9h-63.3c-5 0-9.1-4.1-9.1-9.1v-44.6c0-19.2 15.7-34.8 34.8-34.8h11.8c19.2 0 34.9 15.6 34.9 34.8v44.6c0 5-4.1 9.1-9.1 9.1z"/><path class="d" d="m21.8 107.8v7.4c0 5.9 4.8 10.7 10.7 10.7h4.3c-3.3-7.1-8.9-13-15-18.1z"/><path class="e" d="m41.8 107.5c-6.1-6.1-12.8-12.1-20-17v13.9c7.4 5.9 14.3 12.9 17.9 21.5h16.1c-3.6-6.9-8.5-12.9-14-18.4z"/><path class="e" d="m89.4 102.9c-6.1 3.6-11.9 7.8-17.1 12.6q-5.1 4.8-9.3 10.4h17.4c1.9-2.1 4-4 5.9-5.8 4-3.7 8.2-7.1 12.8-10.1q2.1-1.3 4.2-2.6v-12c-5 1.7-10.2 5.3-13.9 7.5z"/><path class="d" d="m99.2 113.2c-4 2.6-7.6 5.6-11.1 8.8-1.3 1.2-2.7 2.5-4 3.9h8.5c5.9 0 10.7-4.8 10.7-10.7v-4.7q-2.1 1.3-4.1 2.7z"/><path class="f" d="m94.2 125.9h-63.3c-5 0-9.1-4.1-9.1-9.1v-44.6c0-19.2 15.7-34.8 34.8-34.8h11.8c19.2 0 34.9 15.6 34.9 34.8v44.6c0 5-4.1 9.1-9.1 9.1z"/><path fill-rule="evenodd" class="g" d="m37.5 88.1c-5.5 0-10-4.5-10-10.1 0-5.5 4.5-10 10-10 5.6 0 10.1 4.5 10.1 10 0 5.6-4.5 10.1-10.1 10.1z"/><path fill-rule="evenodd" class="h" d="m41.4 85.1c-5.1 2.1-11-0.3-13.1-5.5-2.2-5.1 0.3-11 5.4-13.1 5.1-2.2 11 0.3 13.2 5.4 2.1 5.2-0.3 11-5.5 13.2z"/><path fill-rule="evenodd" class="i" d="m40 79.7c-3.6 0-6.4-2.9-6.4-6.5 0-3.5 2.8-6.4 6.4-6.4 3.5 0 6.4 2.9 6.4 6.4 0 3.6-2.9 6.5-6.4 6.5z"/><path fill-rule="evenodd" class="g" d="m84.9 88.1c-5.6 0-10.1-4.5-10.1-10.1 0-5.5 4.5-10 10.1-10 5.6 0 10.1 4.5 10.1 10 0 5.6-4.5 10.1-10.1 10.1z"/><path fill-rule="evenodd" class="h" d="m88.8 85.1c-5.2 2.1-11.1-0.3-13.2-5.4-2.2-5.2 0.3-11.1 5.4-13.2 5.1-2.2 11 0.3 13.2 5.4 2.1 5.1-0.3 11-5.4 13.2z"/><path fill-rule="evenodd" class="i" d="m86.6 79.7c-3.5 0-6.4-2.9-6.4-6.5 0-3.5 2.9-6.4 6.4-6.4 3.6 0 6.5 2.9 6.5 6.4 0 3.6-2.9 6.5-6.5 6.5z"/><path class="g" d="m41.8 58.5c0 0 13.6 1.8 11.2 8-2.5 6.3-11.2-8-11.2-8z"/><path class="g" d="m79.2 58.8c0 0-13.7 0.9-11.7 7.3 2.1 6.4 11.7-7.3 11.7-7.3z"/><path class="h" d="m66.5 87.9c0 0-0.6 2.9 2.2 4.3 0 0-0.9-4 0.5-4.6z"/><path class="h" d="m80.4 91.6c0 0-1.5 2.5-4.4 1.8 0 0 3.2-2.4 2.7-3.8z"/><path class="g" d="m65.9 89.2c5.1-1.4 10.7-0.2 14.1 3.8 1 1.1 2.5-0.5 1.6-1.6-4-4.5-10.5-5.9-16.2-4.4-1.4 0.4-0.8 2.6 0.5 2.2z"/><path fill-rule="evenodd" class="j" d="m62.7 53.7c-9.7 0-17.6-3-17.6-6.6 0-3.6 7.9-6.6 17.6-6.6 9.7 0 17.5 3 17.5 6.6 0 3.6-7.8 6.6-17.5 6.6z"/></g></svg>