<svg version="1.2" xmlns="http://www.w3.org/2000/svg" viewBox="0 0 124 123" width="124" height="123"><defs><clipPath clipPathUnits="userSpaceOnUse" id="cp1"><path d="m123.31 61.7c0 33.9-27.41 61.31-61.32 61.31-33.9 0-61.31-27.41-61.31-61.31 0-33.91 27.41-61.32 61.31-61.32 33.91 0 61.32 27.41 61.32 61.32z"/></clipPath><clipPath clipPathUnits="userSpaceOnUse" id="cp2"><path d="m105.35 105.05c-23.97 23.97-62.73 23.97-86.71 0-23.97-23.98-23.97-62.74 0-86.71 23.98-23.98 62.74-23.98 86.71 0 23.98 23.97 23.98 62.73 0 86.71z"/></clipPath></defs><style>.a{fill:#9365b8}.b{fill:#c6dd51}.c{fill:#d8e547}.d{fill:none;stroke:#a3b232;stroke-miterlimit:10;stroke-width:1.8}.e{fill:#a3b232}.f{fill:#fff}.g{fill:#231f20}.h{fill:none;stroke:#af3333;stroke-miterlimit:10;stroke-width:.7}</style><g clip-path="url(#cp1)"><path fill-rule="evenodd" class="a" d="m105.3 105c-23.9 24-62.7 24-86.7 0-23.9-23.9-23.9-62.7 0-86.7 24-23.9 62.8-23.9 86.7 0 24 24 24 62.8 0 86.7z"/></g><g clip-path="url(#cp2)"><path class="b" d="m80.2 122.3h-38c-12.9 0-23.4-10.5-23.4-23.4v-47.8c0-20 16.3-36.3 36.3-36.3h12.3c19.9 0 36.2 16.3 36.2 36.3v47.8c0 12.9-10.5 23.4-23.4 23.4z"/><path class="c" d="m43.8 26c6.4 2.6 13.9 3.1 20.8 2.5 6.5-0.6 14-2.3 18.9-6.9q0.2-0.1 0.3-0.3c-6.6-4.1-14.3-6.5-22.6-6.5-8.5 0-16.4 2.5-23.1 6.9 1.2 1.8 3.3 3.3 5.7 4.3z"/><path class="d" d="m80.2 122.3h-38c-12.9 0-23.4-10.5-23.4-23.4v-47.8c0-20 16.3-36.3 36.3-36.3h12.3c19.9 0 36.2 16.3 36.2 36.3v47.8c0 12.9-10.5 23.4-23.4 23.4z"/><path fill-rule="evenodd" class="c" d="m81.4 44.7c-3.3 0-6-2.7-6-6.1 0-3.3 2.7-6 6-6 3.4 0 6.1 2.7 6.1 6 0 3.4-2.7 6.1-6.1 6.1z"/><path class="c" d="m90.7 48.2c0 0.7 0.6 1.3 1.3 1.3 0.8 0 1.4-0.6 1.4-1.3 0-0.8-0.6-1.4-1.4-1.4-0.7 0-1.3 0.6-1.3 1.4z"/><path class="c" d="m89 70.1c0 0.8 0.6 1.5 1.5 1.5 0.8 0 1.5-0.7 1.5-1.5 0-0.8-0.7-1.5-1.5-1.5-0.9 0-1.5 0.7-1.5 1.5z"/><path fill-rule="evenodd" class="c" d="m26 66.5c-1.3 0-2.4-1-2.4-2.4 0-1.3 1.1-2.4 2.4-2.4 1.4 0 2.4 1.1 2.4 2.4 0 1.4-1 2.4-2.4 2.4z"/><path fill-rule="evenodd" class="c" d="m34.9 83.2c-0.8 0-1.4-0.7-1.4-1.4 0-0.8 0.6-1.5 1.4-1.5 0.8 0 1.4 0.7 1.4 1.5 0 0.7-0.6 1.4-1.4 1.4z"/><path class="c" d="m62 100.2c0 2 1.7 3.7 3.7 3.7 2 0 3.7-1.7 3.7-3.7 0-2.1-1.7-3.7-3.7-3.7-2 0-3.7 1.6-3.7 3.7z"/><path class="c" d="m27.3 104.9c0 1.8 1.4 3.1 3.1 3.1 1.7 0 3.1-1.3 3.1-3.1 0-1.7-1.4-3-3.1-3-1.7 0-3.1 1.3-3.1 3z"/><path fill-rule="evenodd" class="e" d="m58.6 94.5c-12.9 0-23.3-10.4-23.3-23.3 0-12.9 10.4-23.3 23.3-23.3 12.9 0 23.3 10.4 23.3 23.3 0 12.9-10.4 23.3-23.3 23.3z"/><path fill-rule="evenodd" class="f" d="m60.6 93.9c-12.9 0-23.3-10.5-23.3-23.4 0-12.9 10.4-23.3 23.3-23.3 12.9 0 23.3 10.4 23.3 23.3 0 12.9-10.4 23.4-23.3 23.4z"/><path fill-rule="evenodd" class="g" d="m60.9 80.4c-5.8 0-10.4-4.6-10.4-10.4 0-5.7 4.6-10.3 10.4-10.3 5.7 0 10.4 4.6 10.4 10.3 0 5.8-4.7 10.4-10.4 10.4z"/><path class="g" d="m56.9 43.1c-12.7 4.8-30.6 0.5-30.6 0.5 15.1 7.5 26.7 2.6 31.5-0.3q-0.4-0.1-0.9-0.2z"/><path class="g" d="m56.4 43.1c-13.3 2.6-30.4-4.8-30.4-4.8 13.9 10.3 26.6 6.9 31.5 4.9q-0.5 0-1.1-0.1z"/><path class="g" d="m58.8 39c-13.6 0.7-29.4-9-29.4-9 12.6 12.4 26 10.5 30.9 9.2q-0.8-0.1-1.5-0.2z"/><path class="e" d="m50.9 103.8c4.2 3.6 9.7 3.4 14 0 1.2-0.9-0.5-2.5-1.7-1.6-3.1 2.5-7.5 2.6-10.7 0-1.1-0.9-2.8 0.7-1.6 1.6z"/><path fill-rule="evenodd" class="h" d="m30.9 87.3l-4.9 6.6"/><path fill-rule="evenodd" class="h" d="m35.6 89.9l-5 6.6"/><path fill-rule="evenodd" class="h" d="m39.9 92.6l-5 6.6"/><path fill-rule="evenodd" class="h" d="m81 87.2l-5 6.6"/><path fill-rule="evenodd" class="h" d="m85.7 89.8l-5 6.6"/><path fill-rule="evenodd" class="h" d="m90 92.5l-5 6.6"/><path class="b" d="m45.5 115c0 0.7-0.3 1.4-0.8 1.9l-6.6 6.6q-0.3 0.3-0.6 0.4l-13.9 14-9.3-8.1 15.3-15.2q0 0 0.1-0.1l3.8-3.8 2.9-2.9c1-1 2.7-1 3.7 0 0.5 0.5 0.8 1.2 0.8 1.8 0 0.7-0.3 1.4-0.8 1.9l-2.9 2.9 1.3 1.3 2.5-2.5c1-1 2.7-1 3.7 0 0.5 0.5 0.8 1.2 0.8 1.8z"/><path class="b" d="m69.4 115c0 0.7 0.3 1.4 0.8 1.9l6.6 6.6q0.3 0.3 0.5 0.4l14 14 9.2-8.1-15.2-15.2q0 0-0.1-0.1l-3.8-3.8-2.9-2.9c-1-1-2.7-1-3.7 0-0.5 0.5-0.8 1.2-0.8 1.8 0 0.7 0.3 1.4 0.8 1.9l2.9 2.9-1.3 1.3-2.5-2.5c-1.1-1-2.7-1-3.7 0-0.5 0.5-0.8 1.2-0.8 1.8z"/><path class="d" d="m45.5 114.9c0 0.7-0.3 1.4-0.8 1.9l-6.6 6.6q-0.3 0.3-0.6 0.4l-13.9 14-9.3-8 15.3-15.3q0 0 0.1-0.1l3.8-3.8 2.9-2.9c1-1 2.7-1 3.7 0 0.5 0.5 0.8 1.2 0.8 1.8 0 0.7-0.3 1.4-0.8 1.9l-2.9 2.9 1.3 1.3 2.5-2.5c1-1 2.7-1 3.7 0 0.5 0.5 0.8 1.2 0.8 1.8z"/><path class="d" d="m69.4 114.9c0 0.7 0.3 1.4 0.8 1.9l6.6 6.6q0.3 0.3 0.5 0.4l14 14 9.2-8-15.2-15.3q0 0-0.1-0.1l-3.8-3.8-2.9-2.9c-1-1-2.7-1-3.7 0-0.5 0.5-0.8 1.2-0.8 1.8 0 0.7 0.3 1.4 0.8 1.9l2.9 2.9-1.3 1.3-2.5-2.5c-1.1-1-2.7-1-3.7 0-0.5 0.5-0.8 1.2-0.8 1.8z"/><path class="b" d="m33.5 110.7l-3.8 3.8q0 0 0-0.1z"/></g></svg>