<svg version="1.2" xmlns="http://www.w3.org/2000/svg" viewBox="0 0 123 123" width="123" height="123"><defs><clipPath clipPathUnits="userSpaceOnUse" id="cp1"><path d="m123.05 61.7c0 33.9-27.4 61.31-61.31 61.31-33.91 0-61.31-27.41-61.31-61.31 0-33.91 27.4-61.31 61.31-61.31 33.91 0 61.31 27.4 61.31 61.31z"/></clipPath><clipPath clipPathUnits="userSpaceOnUse" id="cp2"><path d="m105.1 105.05c-23.98 23.97-62.74 23.97-86.71 0-23.98-23.98-23.98-62.74 0-86.71 23.97-23.98 62.73-23.98 86.71 0 23.97 23.97 23.97 62.73 0 86.71z"/></clipPath><clipPath clipPathUnits="userSpaceOnUse" id="cp3"><path d="m68.09 83.36c-6.21 2.85-13.34 3.2-19.68 0.67q-0.15-0.06-0.3-0.12c-10.04-4.05-18.08 10.62-5.42 18.1 12.65 7.49 30.89 5.06 38.37-4.73 6.54-8.57-0.88-19.46-12.97-13.92z"/></clipPath><clipPath clipPathUnits="userSpaceOnUse" id="cp4"><path d="m67.89 83.04c-6.21 2.85-13.33 3.2-19.68 0.67q-0.15-0.06-0.3-0.12c-10.03-4.05-18.08 10.61-5.42 18.1 12.65 7.49 30.89 5.06 38.37-4.73 6.54-8.57-0.88-19.46-12.97-13.92z"/></clipPath></defs><style>.a{fill:#18384d}.b{fill:#d13c5a}.c{fill:#e0486c}.d{fill:none;stroke:#ad2747;stroke-miterlimit:10;stroke-width:1.9}.e{fill:#ad2747}.f{fill:#fff}.g{fill:#231f20}.h{fill:#d04642}</style><g clip-path="url(#cp1)"><path fill-rule="evenodd" class="a" d="m105.1 105c-24 24-62.7 24-86.7 0-24-23.9-24-62.7 0-86.7 24-23.9 62.7-23.9 86.7 0 24 24 24 62.8 0 86.7z"/></g><g clip-path="url(#cp2)"><path class="b" d="m122.7 83.7h-22.1v-14.8q0.3-0.2 0.7-0.4l23.9-16.2c3.3-2.2 4.2-6.8 2-10.1l-1.8-2.6c-2.2-3.3-6.8-4.2-10.1-2l-14.7 10v-11.6c0-7-5.8-12.8-12.8-12.8h-1.7l5.7-15.9c1.3-3.8-0.7-8.1-4.5-9.4l-2.9-1c-3.8-1.4-8 0.6-9.3 4.4l-7.9 21.9h-11l-7.8-21.9c-1.4-3.8-5.6-5.8-9.4-4.4l-2.9 1c-3.8 1.3-5.8 5.6-4.4 9.4l5.7 15.9h-2.8c-7 0-12.7 5.8-12.7 12.8v9.2l-15.2-10.2c-3.3-2.3-7.9-1.4-10.2 1.9l-1.7 2.6c-2.2 3.3-1.4 7.9 2 10.2l23.9 16.1q0.5 0.4 1.2 0.7v17.2h-22.6c-4 0-7.3 3.3-7.3 7.4v3.1c0 4 3.3 7.3 7.3 7.3h22.6v23.6c0 7 5.7 12.8 12.7 12.8h53.2c7 0 12.8-5.8 12.8-12.8v-23.6h22.1c4 0 7.3-3.3 7.3-7.3v-3.1c0-4.1-3.3-7.4-7.3-7.4z"/><path class="c" d="m31.9 7.9q3.4-0.1 6.7-0.6c3.6-0.5 7.4-1.3 10.7-2.9q0.1-0.1 0.1-0.1l-1-3c-1.4-3.8-5.6-5.8-9.4-4.5l-2.9 1.1c-3.8 1.3-5.8 5.6-4.4 9.3z"/><path class="c" d="m75.7 7.2c3.5 2.3 7.8 3.3 12 3.7q1.3 0.1 2.7 0.1l1.4-3.8c1.3-3.7-0.7-8-4.5-9.3l-2.9-1.1c-3.8-1.3-8 0.7-9.3 4.5l-1.6 4.3q1 0.9 2.2 1.6z"/><path class="c" d="m129.9 95.3q0.1-0.6 0.1-1.1v-3.1c0-4.1-3.3-7.4-7.3-7.4h-8.8c2.3 5.8 9.3 10.5 16 11.6z"/><path class="c" d="m5.6 83.7h-6.3c-4 0-7.3 3.3-7.3 7.4v1.1c5.1-1.2 9.9-4.5 13.6-8.5z"/><path class="c" d="m-0.8 45.6c3.8-1.4 9.2-3.9 12.1-7.6l-4.6-3c-3.3-2.3-7.9-1.4-10.1 1.9l-1.8 2.6c-1.5 2.3-1.6 5.1-0.4 7.4q2.4-0.4 4.8-1.3z"/><path class="c" d="m113.2 39c-0.5 5.3 0.5 10.8 2 15.7q0.6 1.8 1.3 3.5l8.7-5.9c3.3-2.2 4.2-6.8 2-10.1l-1.8-2.6c-2.2-3.3-6.8-4.2-10.1-2z"/><path class="d" d="m122.7 83.7h-22.1v-14.8q0.3-0.2 0.7-0.4l23.9-16.2c3.3-2.2 4.2-6.8 2-10.1l-1.8-2.6c-2.2-3.3-6.8-4.2-10.1-2l-14.7 10v-11.6c0-7-5.8-12.8-12.8-12.8h-1.7l5.7-15.9c1.3-3.8-0.7-8.1-4.5-9.4l-2.9-1c-3.8-1.4-8 0.6-9.3 4.4l-7.9 21.9h-11l-7.8-21.9c-1.4-3.8-5.6-5.8-9.4-4.4l-2.9 1c-3.8 1.3-5.8 5.6-4.4 9.4l5.7 15.9h-2.8c-7 0-12.7 5.8-12.7 12.8v9.2l-15.2-10.2c-3.3-2.3-7.9-1.4-10.2 1.9l-1.7 2.6c-2.2 3.3-1.4 7.9 2 10.2l23.9 16.1q0.5 0.4 1.2 0.7v17.2h-22.6c-4 0-7.3 3.3-7.3 7.4v3.1c0 4 3.3 7.3 7.3 7.3h22.6v23.6c0 7 5.7 12.8 12.7 12.8h53.2c7 0 12.8-5.8 12.8-12.8v-23.6h22.1c4 0 7.3-3.3 7.3-7.3v-3.1c0-4.1-3.3-7.4-7.3-7.4z"/><path class="c" d="m89.6 33.7h-55.9c-1.4 0-2.5-1.1-2.5-2.4v-0.8c0-1.3 1.1-2.4 2.5-2.4h55.9c1.3 0 2.4 1.1 2.4 2.4v0.8c0 1.3-1.1 2.4-2.4 2.4z"/><path fill-rule="evenodd" class="e" d="m61.6 55.9c-6.1 0-11-4.9-11-11 0-6.1 4.9-11 11-11 6.1 0 11 4.9 11 11 0 6.1-4.9 11-11 11z"/><path fill-rule="evenodd" class="e" d="m54.3 69.7c-1.4 5.9-7.3 9.6-13.2 8.2-5.9-1.4-9.6-7.3-8.2-13.2 1.4-6 7.3-9.6 13.3-8.2 5.9 1.4 9.5 7.3 8.1 13.2z"/><path fill-rule="evenodd" class="e" d="m83.4 77.4c-5.6 2.3-12-0.4-14.4-6-2.3-5.6 0.4-12 6-14.4 5.6-2.3 12.1 0.4 14.4 6 2.3 5.7-0.4 12.1-6 14.4z"/><path fill-rule="evenodd" class="f" d="m61.6 52.9c-6.1 0-11-4.9-11-11 0-6.1 4.9-11 11-11 6.1 0 11 4.9 11 11 0 6.1-4.9 11-11 11z"/><path fill-rule="evenodd" class="g" d="m61.6 48.8c-3.9 0-7-3.1-7-7 0-3.8 3.1-7 7-7 3.9 0 7 3.2 7 7 0 3.9-3.1 7-7 7z"/><path fill-rule="evenodd" class="f" d="m43.6 75.5c-6 0-11-4.9-11-11 0-6.1 5-11 11-11 6.1 0 11 4.9 11 11 0 6.1-4.9 11-11 11z"/><path fill-rule="evenodd" class="g" d="m43.6 71.4c-3.8 0-7-3.1-7-7 0-3.9 3.2-7 7-7 3.9 0 7 3.1 7 7 0 3.9-3.1 7-7 7z"/><path fill-rule="evenodd" class="f" d="m79.2 75.5c-6.1 0-11-4.9-11-11 0-6.1 4.9-11 11-11 6.1 0 11 4.9 11 11 0 6.1-4.9 11-11 11z"/><path fill-rule="evenodd" class="g" d="m79.2 71.4c-3.8 0-7-3.1-7-7 0-3.9 3.2-7 7-7 3.9 0 7 3.1 7 7 0 3.9-3.1 7-7 7z"/><path class="g" d="m68.1 83.3c-6.2 2.8-13.3 3.2-19.7 0.6q-0.1 0-0.3-0.1c-10-4-18 10.6-5.4 18.1 12.7 7.5 30.9 5.1 38.4-4.7 6.5-8.6-0.9-19.5-13-13.9z"/><g clip-path="url(#cp3)"><path class="h" d="m42.7 102.4c0 0-1.9-10.3 16.8-3.4 0 0 14.4-9.2 19.4 0.9 0 0-13.7 14.2-36.2 2.5z"/></g><g clip-path="url(#cp4)"><path class="f" d="m41.1 83c0 0-3.9 7.5 6.6 8.9 3.4 0.4 21.2 0.1 24.8-0.9 9.9-2.8 6.2-9.9 6.2-9.9 0 0-34.2-3.6-37.6 1.9z"/></g><path class="e" d="m43.6 106.4c0 0 18.1 9.5 32.3 0 0 0-15.5 13.5-32.3 0z"/><path fill-rule="evenodd" class="c" d="m40.8 122.9c-3.2 0-5.8-2.5-5.8-5.8 0-3.2 2.6-5.8 5.8-5.8 3.2 0 5.8 2.6 5.8 5.8 0 3.3-2.6 5.8-5.8 5.8z"/><path class="c" d="m72.6 126.3c0 2.4 2 4.4 4.5 4.4 2.4 0 4.4-2 4.4-4.4 0-2.5-2-4.5-4.4-4.5-2.5 0-4.5 2-4.5 4.5z"/><path class="c" d="m92 89.3c0 0.7 0.5 1.3 1.3 1.3 0.7 0 1.3-0.6 1.3-1.3 0-0.7-0.6-1.3-1.3-1.3-0.8 0-1.3 0.6-1.3 1.3z"/><path class="c" d="m90.2 47.8c0 1.2 1 2.2 2.2 2.2 1.2 0 2.2-1 2.2-2.2 0-1.2-1-2.2-2.2-2.2-1.2 0-2.2 1-2.2 2.2z"/><path class="c" d="m32.6 45.8c0 3.1 2.5 5.5 5.5 5.5 3.1 0 5.5-2.4 5.5-5.5 0-3-2.4-5.5-5.5-5.5-3 0-5.5 2.5-5.5 5.5z"/><path class="c" d="m60 68.9c0 0.9 0.8 1.7 1.7 1.7 1 0 1.8-0.8 1.8-1.7 0-1-0.8-1.8-1.8-1.8-0.9 0-1.7 0.8-1.7 1.8z"/><path fill-rule="evenodd" class="c" d="m33.9 85.3c-1.5 0-2.7-1.2-2.7-2.7 0-1.5 1.2-2.7 2.7-2.7 1.5 0 2.7 1.2 2.7 2.7 0 1.5-1.2 2.7-2.7 2.7z"/><path class="c" d="m12.9 97.3c0 2 1.6 3.6 3.5 3.6 2 0 3.6-1.6 3.6-3.6 0-1.9-1.6-3.5-3.6-3.5-1.9 0-3.5 1.6-3.5 3.5z"/><path class="c" d="m104.7 96.6c0 1.6 1.3 2.8 2.8 2.8 1.6 0 2.8-1.2 2.8-2.8 0-1.5-1.2-2.8-2.8-2.8-1.5 0-2.8 1.3-2.8 2.8z"/><path class="c" d="m103.2 53.6c0 0.5 0.3 0.8 0.7 0.8 0.5 0 0.8-0.3 0.8-0.8 0-0.4-0.3-0.7-0.8-0.7-0.4 0-0.7 0.3-0.7 0.7z"/></g></svg>