<svg version="1.2" xmlns="http://www.w3.org/2000/svg" viewBox="0 0 123 123" width="123" height="123"><defs><clipPath clipPathUnits="userSpaceOnUse" id="cp1"><path d="m122.8 61.32c0 33.9-27.41 61.31-61.31 61.31-33.91 0-61.32-27.41-61.32-61.31 0-33.91 27.41-61.31 61.32-61.31 33.9 0 61.31 27.4 61.31 61.31z"/></clipPath><clipPath clipPathUnits="userSpaceOnUse" id="cp2"><path d="m104.84 104.67c-23.97 23.98-62.73 23.98-86.71 0-23.97-23.97-23.97-62.73 0-86.71 23.98-23.97 62.74-23.97 86.71 0 23.98 23.98 23.98 62.74 0 86.71z"/></clipPath><clipPath clipPathUnits="userSpaceOnUse" id="cp3"><path d="m51.86 93.16c0 9.76 4.52 17.67 10.1 17.67 5.57 0 10.09-7.91 10.09-17.67 0-9.76-4.52-17.67-10.09-17.67-5.58 0-10.1 7.91-10.1 17.67z"/></clipPath></defs><style>.a{fill:#f2f2f2}.b{fill:#ede0a9;stroke:#295d6b;stroke-miterlimit:10;stroke-width:2.1}.c{fill:none;stroke:#482c8e;stroke-miterlimit:10;stroke-width:2.1}.d{opacity:.32;fill:none;stroke:#d3bd5f;stroke-miterlimit:10;stroke-width:2.1}.e{fill:#655fbe}.f{fill:#8479db}.g{fill:#482c8e}.h{fill:#fff}.i{fill:#231f20}.j{fill:#d04642}</style><g clip-path="url(#cp1)"><path fill-rule="evenodd" class="a" d="m104.8 104.7c-23.9 23.9-62.7 23.9-86.7 0-23.9-24-23.9-62.8 0-86.7 24-24 62.8-24 86.7 0 24 23.9 24 62.7 0 86.7z"/></g><g clip-path="url(#cp2)"><path class="b" d="m29.4 72.4l4.8 9.3c-5.2 2.7-10.7 3.9-16.2 3.9-12.9 0-25.4-7.1-31.7-19.4-7.4-14.5-1.7-32.3 12.8-39.7 12.2-6.2 27.1-1.4 33.2 10.8 2.6 4.9 3 10.5 1.3 15.8-1.7 5.3-5.4 9.6-10.3 12.1-8.7 4.5-19.4 1-23.8-7.7-3.8-7.5-0.8-16.6 6.6-20.4 4.9-2.5 10.6-1.7 14.5 1.6-4.2-4.4-11-5.7-16.7-2.8-9.3 4.7-13 16.2-8.2 25.5 6.2 12.4 21.4 17.2 33.7 11z"/><path class="b" d="m137.1 68.7c-6.3 12.3-18.8 19.4-31.8 19.4-5.4 0-10.9-1.3-16.1-3.9l4.8-9.4c12.3 6.3 27.4 1.4 33.7-10.9 4.8-9.4 1.1-20.8-8.3-25.6-5.7-2.9-12.4-1.6-16.6 2.8 3.9-3.2 9.6-4.1 14.5-1.6 7.4 3.8 10.4 13 6.6 20.5-4.5 8.7-15.1 12.1-23.8 7.7-5-2.6-8.6-6.9-10.3-12.1-1.8-5.3-1.3-11 1.2-15.9 6.2-12.1 21.1-17 33.2-10.8 14.5 7.4 20.3 25.3 12.9 39.8z"/><path class="c" d="m29.4 72.4l4.8 9.3c-5.2 2.7-10.7 3.9-16.1 3.9-13 0-25.5-7.1-31.8-19.4-7.4-14.5-1.6-32.3 12.9-39.7 12.1-6.2 27-1.4 33.2 10.8 2.5 4.9 2.9 10.5 1.2 15.8-1.7 5.3-5.4 9.6-10.3 12.1-8.7 4.5-19.4 1-23.8-7.7-3.8-7.5-0.8-16.6 6.6-20.4 4.9-2.5 10.6-1.7 14.5 1.6-4.2-4.4-11-5.7-16.7-2.8-9.3 4.7-13 16.2-8.2 25.5 6.2 12.4 21.4 17.2 33.7 11z"/><path class="c" d="m137.1 68.7c-6.3 12.3-18.8 19.4-31.8 19.4-5.4 0-10.9-1.3-16.1-3.9l4.8-9.4c12.3 6.3 27.4 1.4 33.7-10.9 4.8-9.4 1.1-20.8-8.3-25.6-5.7-2.9-12.4-1.6-16.6 2.8 3.9-3.2 9.6-4.1 14.5-1.6 7.4 3.8 10.4 13 6.6 20.5-4.4 8.7-15.1 12.1-23.8 7.7-5-2.6-8.6-6.9-10.3-12.1-1.7-5.3-1.3-11 1.2-15.9 6.2-12.1 21.1-17 33.2-10.8 14.5 7.4 20.3 25.3 12.9 39.8z"/><path fill-rule="evenodd" class="d" d="m31.8 77.1c-14.9 7.6-33.2 1.7-40.8-13.3-6.1-11.9-1.4-26.5 10.5-32.6 9.6-4.9 21.3-1.1 26.2 8.4 3.9 7.7 0.8 17-6.8 20.9-6.1 3.2-13.6 0.7-16.7-5.4-2.5-4.9-0.6-10.9 4.3-13.3 3.9-2 8.7-0.5 10.7 3.4 1.6 3.1 0.4 7-2.8 8.6-2.5 1.3-5.5 0.3-6.8-2.2-1-2-0.2-4.5 1.8-5.5 1.6-0.8 3.5-0.2 4.3 1.4 0.7 1.3 0.2 2.8-1.1 3.5-1 0.5-2.3 0.1-2.8-0.9-0.4-0.8-0.1-1.8 0.7-2.2 0.7-0.4 1.5-0.1 1.8 0.5"/><path fill-rule="evenodd" class="d" d="m91.6 79.5c14.9 7.6 33.2 1.7 40.8-13.2 6.1-12 1.4-26.6-10.6-32.7-9.5-4.9-21.2-1.1-26.1 8.5-3.9 7.6-0.9 17 6.8 20.9 6.1 3.1 13.6 0.7 16.7-5.4 2.5-4.9 0.5-10.9-4.3-13.4-4-2-8.7-0.5-10.7 3.5-1.6 3.1-0.4 6.9 2.7 8.5 2.5 1.3 5.6 0.3 6.9-2.2 1-2 0.2-4.5-1.8-5.5-1.6-0.8-3.6-0.2-4.4 1.4-0.6 1.3-0.1 2.9 1.2 3.5 1 0.6 2.2 0.2 2.8-0.9 0.4-0.8 0.1-1.8-0.8-2.2-0.6-0.3-1.4-0.1-1.8 0.6"/><path class="e" d="m101.5 127.2v-60.2c0-22-18-40-40-40-22 0-40 18-40 40v60.2z"/><path class="f" d="m40.8 37.7q1.5-0.2 2.8-1.1c2-1.2 3.9-3.2 6.4-3.3 1.9-0.2 3.4 0.6 4.4 2.1 1.3 2 0.1 4 0.9 5.8 0.7 1.5 2.3 1.4 4.2 0.8 2.2-0.7 3-2.4 4.6-3.7 1.7-1.4 2.8-1.6 4.9-1 4.2 1.2 7.5 4.6 9.8-1.2 0.5-1.5 1-3.1 1.4-4.6-5.5-2.9-11.7-4.5-18.2-4.5-9 0-17.3 3-24 8q0.4 1.2 2.8 2.7z"/><path class="c" d="m101.5 127.2v-60.2c0-22-18-40-40-40-22 0-40 18-40 40v60.2z"/><path fill-rule="evenodd" class="g" d="m42.9 80.4c-6.6 0-12-5.4-12-12 0-6.6 5.4-12 12-12 6.6 0 12 5.4 12 12 0 6.6-5.4 12-12 12z"/><path fill-rule="evenodd" class="h" d="m42.9 77.1c-6.6 0-12-5.4-12-12 0-6.6 5.4-12 12-12 6.6 0 12 5.4 12 12 0 6.6-5.4 12-12 12z"/><path fill-rule="evenodd" class="i" d="m50.4 67c-0.6 4.2-4.6 7-8.7 6.4-4.2-0.7-7-4.6-6.3-8.8 0.6-4.2 4.6-7 8.7-6.3 4.2 0.7 7 4.6 6.3 8.7z"/><path fill-rule="evenodd" class="g" d="m78.5 80.4c-6.6 0-11.9-5.4-11.9-12 0-6.6 5.3-12 11.9-12 6.7 0 12 5.4 12 12 0 6.6-5.3 12-12 12z"/><path fill-rule="evenodd" class="h" d="m78.5 77.1c-6.6 0-11.9-5.4-11.9-12 0-6.6 5.3-12 11.9-12 6.7 0 12 5.4 12 12 0 6.6-5.3 12-12 12z"/><path fill-rule="evenodd" class="i" d="m86.1 67c-0.7 4.2-4.6 7-8.8 6.4-4.2-0.7-7-4.6-6.3-8.8 0.7-4.2 4.6-7 8.7-6.3 4.2 0.7 7 4.6 6.4 8.7z"/><path class="i" d="m51.9 93.2c0 9.7 4.5 17.6 10.1 17.6 5.5 0 10-7.9 10-17.6 0-9.8-4.5-17.7-10-17.7-5.6 0-10.1 7.9-10.1 17.7z"/><g clip-path="url(#cp3)"><path class="j" d="m50.3 107.7c0 0-1.3-7.7 12.4-2.6 0 0 10.5-6.9 14.2 0.7 0 0-10 10.6-26.6 1.9z"/></g></g></svg>